<svg xmlns="http://www.w3.org/2000/svg" xmlns:xlink="http://www.w3.org/1999/xlink" width="371" height="50" viewBox="0 0 371 50" fill="none"><defs><rect id="path_0" x="0" y="0" width="371" height="50" /></defs><g opacity="0.4" transform="translate(0 0)  rotate(0 185.5 25)"><mask id="bg-mask-0" fill="white"><use xlink:href="#path_0"></use></mask><g mask="url(#bg-mask-0)" ><g opacity="1" transform="translate(230.279 0.25)  rotate(0 70.179 23.8825)"><path id="分组 2" fill-rule="evenodd" style="fill:#000000" transform="translate(0.25 0.25)  rotate(0 15.486000000000004 17.909)" opacity="0.02" d="M14.45 0.09C13.75 0.05 12.37 0 10.94 0C5.22 0 0.65 0.18 0.28 6.51C0.14 9 0 14.36 0 19.43C0 23.31 0.09 27.05 0.23 29.31C0.69 35.77 7.25 35.82 10.94 35.82C15.74 35.82 30.97 35.77 30.97 17.82C30.97 8.22 25.11 0.79 14.45 0.09Z M10.289 4.985C8.079 4.985 5.589 5.035 5.449 7.335C5.309 9.275 5.169 14.585 5.169 19.575C5.169 23.215 5.259 26.635 5.449 28.385C5.679 30.505 7.109 30.875 10.939 30.875C15.789 30.875 25.529 30.875 25.529 17.815C25.529 10.385 21.049 5.035 13.989 5.035C13.989 5.035 11.999 4.985 10.289 4.985Z " /><path id="分组 3" fill-rule="evenodd" style="fill:#9C9C9C" transform="translate(0 0)  rotate(0 15.73599999999999 18.159)" opacity="1" d="M26.94 5.48C24.11 2.41 20 0.44 14.71 0.09C14.31 0.07 13.69 0.04 12.95 0.02C12.41 0.01 11.8 0 11.19 0C7.72 0 4.66 0.09 2.68 1.51C1.31 2.49 0.43 4.09 0.28 6.74C0.2 8.16 0.12 10.52 0.07 13.21C0.03 15.25 0 17.49 0 19.68C0 21.77 0.03 23.82 0.07 25.62C0.11 27.16 0.17 28.53 0.23 29.57C0.23 29.58 0.23 29.58 0.23 29.58C0.41 32.04 1.44 33.61 2.86 34.6C5.27 36.28 8.81 36.32 11.19 36.32C14.14 36.32 21.01 36.29 25.93 32.18C29.09 29.53 31.47 25.19 31.47 18.07C31.47 13.09 29.91 8.69 26.94 5.48Z M26.58 5.82C23.82 2.84 19.82 0.93 14.68 0.59C14.29 0.57 13.66 0.54 12.94 0.52C12.4 0.51 11.8 0.5 11.19 0.5C7.84 0.5 4.88 0.54 2.97 1.91C1.71 2.82 0.92 4.32 0.78 6.77C0.7 8.19 0.62 10.53 0.57 13.22C0.53 15.26 0.5 17.5 0.5 19.68C0.5 21.77 0.53 23.81 0.57 25.6C0.61 27.14 0.67 28.5 0.73 29.54C0.89 31.82 1.84 33.27 3.15 34.19C5.47 35.82 8.89 35.82 11.19 35.82C14.08 35.82 20.8 35.81 25.61 31.79C28.69 29.22 30.97 24.99 30.97 18.07C30.97 13.22 29.46 8.94 26.58 5.82Z M5.449 7.575C5.379 8.535 5.309 10.315 5.259 12.475C5.209 14.685 5.169 17.295 5.169 19.825C5.169 21.715 5.199 23.555 5.239 25.125C5.289 26.585 5.359 27.815 5.449 28.665L5.449 28.665C5.579 29.865 6.069 30.555 7.079 30.945C7.969 31.285 9.289 31.385 11.189 31.385C14.119 31.385 18.799 31.365 22.119 28.565C24.379 26.655 26.029 23.455 26.029 18.065C26.029 14.385 24.939 11.195 22.999 8.905C20.949 6.475 17.939 5.035 14.239 5.035L10.539 4.985C9.239 4.985 7.849 5.015 6.869 5.465C6.069 5.835 5.509 6.475 5.449 7.575Z M21.799 28.185C23.979 26.345 25.529 23.255 25.529 18.065C25.529 14.515 24.489 11.435 22.609 9.225C20.649 6.905 17.779 5.535 14.239 5.535L10.539 5.485C9.319 5.485 7.999 5.495 7.079 5.915C6.439 6.215 5.999 6.725 5.949 7.605C5.949 7.605 5.949 7.605 5.949 7.605C5.879 8.565 5.809 10.335 5.759 12.485C5.709 14.695 5.669 17.295 5.669 19.825C5.669 21.715 5.689 23.545 5.739 25.105C5.789 26.555 5.859 27.775 5.949 28.615C6.049 29.595 6.439 30.165 7.259 30.475C8.109 30.805 9.369 30.885 11.189 30.885C14.029 30.885 18.579 30.895 21.799 28.185Z " /><path id="分组 4" fill-rule="evenodd" style="fill:#000000" transform="translate(35.79099999999994 12.43600000000001)  rotate(0 10.546999999999997 11.77)" opacity="0.02" d="M17.08 16.43C15.74 17.86 13.99 19.25 11.08 19.25C7.8 19.25 4.85 16.94 4.8 13.11C4.8 12.6 4.89 12.23 5.17 12.23C14.13 12.23 15.09 12.23 16.53 12.18C19.48 12.09 20.91 10.34 20.91 8.17C20.91 4.66 17.31 0 10.94 0C4.99 0 0 4.85 0 11.91C0 18.79 4.71 23.54 11.03 23.54C15.69 23.54 18.19 22.02 20.4 19.71C20.91 19.2 21.09 18.65 21.09 18.09C21.09 16.8 19.89 15.69 18.65 15.69C18.09 15.69 17.54 15.92 17.08 16.43Z M16.106 7.385C16.106 6.735 15.136 4.015 10.986 4.015C7.246 4.015 5.216 7.245 5.216 8.035C5.216 8.445 5.676 8.445 9.966 8.445C11.866 8.445 13.936 8.445 15.186 8.395C15.736 8.355 16.106 7.935 16.106 7.385Z " /><path id="分组 5" fill-rule="evenodd" style="fill:#9C9C9C" transform="translate(35.541000000000054 12.185999999999998)  rotate(0 10.796999999999997 12.019999999999998)" opacity="1" d="M16.5 23.17C18.25 22.49 19.58 21.43 20.83 20.13C21.09 19.87 21.27 19.6 21.39 19.32C21.53 19 21.59 18.67 21.59 18.34C21.59 17.63 21.27 16.97 20.77 16.49C20.26 16 19.59 15.69 18.9 15.69C18.57 15.69 18.24 15.77 17.93 15.92C17.65 16.05 17.39 16.25 17.14 16.51C16.43 17.27 15.6 18.02 14.53 18.54C13.65 18.97 12.6 19.25 11.33 19.25C9.71 19.25 8.16 18.66 7.05 17.59C6 16.58 5.32 15.14 5.3 13.36C5.3 13.22 5.31 13.09 5.32 12.98C5.34 12.91 5.35 12.85 5.37 12.8C5.39 12.77 5.39 12.73 5.42 12.73C10.51 12.73 13.02 12.73 14.5 12.72C15.63 12.72 16.16 12.71 16.78 12.69C18.2 12.64 19.28 12.23 20.04 11.58C20.96 10.8 21.41 9.67 21.41 8.42C21.41 6.37 20.22 3.92 17.99 2.2C16.3 0.89 14.01 0 11.19 0C8 0 5.09 1.36 3.03 3.68C1.16 5.8 0 8.72 0 12.16C0 15.58 1.15 18.49 3.06 20.57C5.09 22.76 7.97 24.04 11.28 24.04C13.41 24.04 15.09 23.73 16.5 23.17Z M0.5 12.16C0.5 15.44 1.59 18.23 3.43 20.23C5.36 22.32 8.12 23.54 11.28 23.54C13.33 23.54 14.95 23.24 16.32 22.71C17.99 22.05 19.27 21.03 20.47 19.79C20.47 19.79 20.47 19.78 20.47 19.78C20.69 19.57 20.84 19.35 20.94 19.12C21.05 18.87 21.09 18.6 21.09 18.34C21.09 17.77 20.83 17.24 20.42 16.84C20.01 16.45 19.46 16.19 18.9 16.19C18.64 16.19 18.39 16.25 18.14 16.37C17.92 16.48 17.71 16.64 17.51 16.85C17.51 16.85 17.51 16.85 17.51 16.85C16.76 17.66 15.88 18.44 14.75 18.99C13.81 19.45 12.69 19.75 11.33 19.75C9.57 19.75 7.91 19.11 6.7 17.95C5.56 16.85 4.82 15.29 4.8 13.36C4.8 13.36 4.8 13.36 4.8 13.36C4.8 13 4.85 12.7 4.95 12.52C5.06 12.33 5.21 12.23 5.42 12.23C10.51 12.23 13.02 12.23 14.5 12.22C15.62 12.22 16.15 12.21 16.77 12.19C18.05 12.15 19.03 11.78 19.72 11.2C20.52 10.51 20.91 9.52 20.91 8.42C20.91 6.49 19.78 4.21 17.68 2.59C16.07 1.35 13.88 0.5 11.19 0.5C8.15 0.5 5.37 1.79 3.4 4.02C1.61 6.05 0.5 8.86 0.5 12.16Z M15.446 8.905C15.446 8.905 15.456 8.905 15.456 8.895C15.806 8.875 16.086 8.725 16.296 8.495C16.496 8.275 16.606 7.975 16.606 7.635C16.606 7.175 16.176 5.725 14.586 4.805C13.786 4.345 12.706 4.015 11.236 4.015C9.746 4.015 8.516 4.515 7.566 5.165C6.006 6.245 5.216 7.765 5.216 8.285C5.216 8.535 5.286 8.725 5.736 8.825C6.226 8.945 7.416 8.945 10.216 8.945C11.266 8.945 12.366 8.945 13.356 8.935C14.156 8.935 14.886 8.925 15.446 8.905Z M5.716 8.285C5.716 8.315 5.746 8.315 5.806 8.335C5.986 8.385 6.286 8.405 6.776 8.425C7.486 8.445 8.566 8.445 10.216 8.445C11.266 8.445 12.366 8.445 13.346 8.435C14.146 8.435 14.866 8.425 15.416 8.405L15.426 8.405C15.626 8.385 15.796 8.295 15.916 8.165C16.046 8.025 16.106 7.845 16.106 7.635C16.106 7.245 15.696 6.025 14.336 5.235C13.596 4.815 12.596 4.515 11.236 4.515C9.856 4.515 8.726 4.975 7.846 5.575C6.466 6.525 5.716 7.825 5.716 8.285Z " /><path id="路径 13" fill-rule="evenodd" style="fill:#000000" transform="translate(60.06999999999999 12.482000000000001)  rotate(0 8.031499999999994 11.724000000000002)" opacity="0.02" d="M7.8,0C3.37,0 0.78,3.05 0.78,6.19C0.78,8.45 2.08,10.71 4.94,11.95C10.34,14.4 11.35,15.28 11.35,16.76C11.35,17.82 10.39,19.11 7.94,19.11C6.05,19.11 4.85,18.32 4.2,17.49C3.69,16.8 3,16.52 2.35,16.52C1.15,16.52 0,17.49 0,18.74C0,20.26 2.35,23.45 7.99,23.45C12.6,23.45 16.06,20.26 16.06,16.66C16.06,14.4 14.72,12.05 11.54,10.34C10.15,9.6 8.08,8.68 6.88,8.08C5.82,7.57 5.35,6.74 5.35,6.05C5.35,5.03 6.23,4.15 7.8,4.15C9.42,4.15 10.25,4.8 10.71,5.26C11.31,5.91 12,6.19 12.6,6.19C13.85,6.19 14.91,5.12 14.91,3.88C14.91,2.08 12.05,0 7.8,0Z " /><path id="分组 6" fill-rule="evenodd" style="fill:#9C9C9C" transform="translate(59.82000000000011 12.232)  rotate(0 8.281499999999937 11.973999999999997)" opacity="1" d="M10.78 5.68C11.07 6 11.38 6.23 11.7 6.39C12.09 6.59 12.49 6.69 12.85 6.69C13.54 6.69 14.18 6.39 14.65 5.92C15.12 5.46 15.41 4.82 15.41 4.13C15.41 3.14 14.63 2.05 13.24 1.25C11.96 0.51 10.18 0 8.05 0C5.96 0 4.27 0.66 3.04 1.68C1.58 2.91 0.78 4.66 0.78 6.44C0.78 7.71 1.18 8.99 2.02 10.1C2.72 11.03 3.73 11.84 5.09 12.43C7.72 13.62 9.3 14.44 10.23 15.13C11.1 15.79 11.35 16.32 11.35 17.01C11.35 17.58 11.03 18.22 10.29 18.64C9.78 18.93 9.09 19.11 8.19 19.11C7.41 19.11 6.76 18.97 6.22 18.75C5.51 18.47 5 18.04 4.65 17.6C4.39 17.24 4.08 16.98 3.76 16.81C3.39 16.61 2.99 16.52 2.6 16.52C1.94 16.52 1.29 16.79 0.81 17.23C0.32 17.67 0 18.29 0 18.99C0 19.87 0.71 21.28 2.35 22.38C3.67 23.26 5.6 23.95 8.24 23.95C10.44 23.95 12.39 23.24 13.85 22.11C15.54 20.8 16.56 18.91 16.56 16.91C16.56 15.59 16.12 14.23 15.15 12.98C14.4 12.03 13.33 11.13 11.91 10.37L11.91 10.37C11.49 10.15 11.01 9.91 10.51 9.66C9.35 9.1 8.08 8.52 7.24 8.1C7.24 8.1 7.24 8.1 7.24 8.1C6.81 7.9 6.49 7.64 6.27 7.37C5.99 7.02 5.85 6.64 5.85 6.3C5.85 5.81 6.1 5.35 6.54 5.05C6.92 4.8 7.42 4.65 8.05 4.65C8.65 4.65 9.14 4.75 9.54 4.89C10.13 5.1 10.52 5.42 10.78 5.68Z M9.71 4.42C10.39 4.67 10.84 5.04 11.14 5.33C11.14 5.34 11.14 5.34 11.14 5.34C11.39 5.61 11.66 5.81 11.93 5.95C12.24 6.11 12.56 6.19 12.85 6.19C13.41 6.19 13.92 5.95 14.3 5.57C14.67 5.2 14.91 4.68 14.91 4.13C14.91 3.27 14.19 2.38 12.99 1.68C11.78 0.98 10.07 0.5 8.05 0.5C6.1 0.5 4.51 1.11 3.37 2.07C2.02 3.19 1.29 4.8 1.29 6.44C1.29 7.61 1.65 8.78 2.42 9.8C3.07 10.67 4.02 11.42 5.29 11.97C5.29 11.98 5.29 11.98 5.29 11.98C7.97 13.19 9.58 14.03 10.53 14.73C11.58 15.53 11.86 16.18 11.86 17C11.86 17.61 11.58 18.28 10.95 18.79C10.37 19.26 9.47 19.61 8.19 19.61C7.34 19.61 6.63 19.46 6.03 19.22C5.23 18.89 4.65 18.4 4.25 17.9C4.25 17.9 4.25 17.89 4.25 17.89C4.04 17.6 3.79 17.39 3.53 17.25C3.23 17.09 2.91 17.02 2.6 17.02C2.07 17.02 1.54 17.24 1.15 17.6C0.76 17.95 0.5 18.44 0.5 18.99C0.5 19.91 1.43 21.44 3.47 22.45C4.67 23.04 6.24 23.45 8.24 23.45C10.32 23.45 12.16 22.78 13.54 21.71C15.1 20.5 16.06 18.76 16.06 16.91C16.06 15.69 15.65 14.44 14.75 13.29C14.04 12.38 13.03 11.54 11.67 10.81C11.26 10.59 10.79 10.35 10.29 10.11C9.13 9.55 7.86 8.97 7.02 8.55C6.52 8.31 6.15 8.01 5.88 7.68C5.52 7.23 5.35 6.74 5.35 6.3C5.35 5.64 5.67 5.04 6.27 4.64C6.71 4.34 7.31 4.15 8.05 4.15C8.72 4.15 9.27 4.26 9.71 4.42Z " /><path id="分组 7" fill-rule="evenodd" style="fill:#000000" transform="translate(81.072 0.3880000000000017)  rotate(0 3.2309999999999945 17.724999999999998)" opacity="0.02" d="M6.46 3.14C6.46 1.38 4.89 0 3.23 0C1.94 0 0 0.88 0 3.14C0 5.26 1.43 6.42 3.23 6.42C5.22 6.42 6.46 4.8 6.46 3.14Z M5.72361 33.008C5.67361 30.468 5.63361 27.188 5.63361 23.998C5.63361 20.128 5.67361 16.478 5.72361 14.588L5.72361 14.498C5.72361 13.018 4.47361 12.278 3.27361 12.278C1.89361 12.278 0.733613 13.108 0.783613 14.628C0.833613 15.878 0.833613 17.728 0.833613 19.798C0.833613 23.998 0.783613 29.268 0.783613 33.098C0.783613 34.668 1.98361 35.448 3.23361 35.448C4.47361 35.448 5.72361 34.668 5.72361 33.098L5.72361 33.008Z " /><path id="分组 8" fill-rule="evenodd" style="fill:#9C9C9C" transform="translate(80.822 0.13800000000000168)  rotate(0 3.4809999999999945 17.975)" opacity="1" d="M6.22348 33.248C6.20348 31.918 6.17348 30.378 6.15348 28.748C6.14348 27.288 6.13348 25.758 6.13348 24.248C6.13348 22.608 6.14348 20.998 6.15348 19.548C6.17348 17.598 6.19348 15.928 6.22348 14.838L6.22348 14.748C6.22348 13.938 5.89348 13.338 5.40348 12.928C4.89348 12.498 4.20348 12.278 3.52348 12.278C2.76348 12.278 2.06348 12.518 1.56348 12.958C1.06348 13.398 0.763478 14.048 0.783478 14.888C0.783478 14.888 0.783478 14.888 0.783478 14.888C0.803478 15.468 0.813478 16.158 0.823478 16.948C0.833478 17.878 0.833478 18.928 0.833478 20.048L0.783478 33.348C0.783478 34.178 1.09348 34.808 1.56348 35.248C2.07348 35.708 2.76348 35.948 3.48348 35.948C4.19348 35.948 4.90348 35.718 5.41348 35.248C5.90348 34.818 6.22348 34.178 6.22348 33.348L6.22348 33.248Z M5.65371 19.538C5.67371 17.588 5.69371 15.918 5.72371 14.828L5.72371 14.748C5.72371 14.108 5.46371 13.628 5.08371 13.308C4.65371 12.948 4.08371 12.778 3.52371 12.778C2.89371 12.778 2.31371 12.968 1.90371 13.328C1.50371 13.688 1.26371 14.208 1.28371 14.878C1.30371 15.448 1.31371 16.148 1.32371 16.948C1.33371 17.878 1.33371 18.928 1.33371 20.048L1.28371 33.348C1.28371 34.018 1.52371 34.528 1.90371 34.878C2.31371 35.258 2.89371 35.448 3.48371 35.448C4.06371 35.448 4.65371 35.258 5.08371 34.878C5.47371 34.528 5.72371 34.018 5.72371 33.348C5.72371 33.348 5.72371 33.258 5.72371 33.258C5.70371 31.918 5.67371 30.378 5.65371 28.758C5.64371 27.288 5.63371 25.758 5.63371 24.248C5.63371 22.598 5.64371 20.988 5.65371 19.538Z M5.96 5.89C6.6 5.22 6.96 4.31 6.96 3.39C6.96 2.45 6.55 1.6 5.9 0.99C5.26 0.38 4.38 0 3.48 0C2.71 0 1.74 0.29 1.02 0.95C0.43 1.5 0 2.29 0 3.39C0 4.49 0.36 5.34 0.95 5.94C1.58 6.58 2.48 6.92 3.48 6.92C4.51 6.92 5.36 6.51 5.96 5.89Z M5.6 5.54C6.15 4.97 6.46 4.18 6.46 3.39C6.46 2.59 6.1 1.87 5.56 1.35C5 0.83 4.25 0.5 3.48 0.5C2.82 0.5 1.98 0.75 1.36 1.32C0.85 1.78 0.5 2.46 0.5 3.39C0.5 4.33 0.8 5.07 1.3 5.58C1.84 6.14 2.62 6.42 3.48 6.42C4.37 6.42 5.09 6.07 5.6 5.54Z " /><path id="分组 9" fill-rule="evenodd" style="fill:#000000" transform="translate(92.38100000000009 12.482)  rotate(0 11.77000000000001 17.5165)" opacity="0.02" d="M3.88 22.15C4.2 22.25 4.29 22.34 4.29 22.43C4.29 22.48 4.2 22.57 4.06 22.62C1.85 23.54 0 25.25 0 27.79C0 30.79 2.95 35.03 11.31 35.03C17.49 35.03 23.54 32.45 23.54 26.26C23.54 22.48 20.45 19.11 13.52 19.11C6.55 19.11 6 18.92 6 18.09C6 16.25 9.14 15.88 11.08 15.83C16.75 15.6 19.8 12.51 19.8 8.08C19.8 6.69 19.71 6.23 19.39 5.35C19.34 5.22 19.34 5.12 19.34 5.08C19.34 4.89 19.43 4.89 19.52 4.85C19.8 4.71 19.99 4.57 20.49 4.57C20.63 4.57 20.86 4.57 21.09 4.62C21.28 4.66 21.42 4.66 21.6 4.66C22.89 4.66 23.54 3.6 23.54 2.54C23.54 0.28 21.6 0.14 20.26 0.14C19.29 0.14 18.51 0.41 17.17 1.11C16.94 1.25 16.71 1.34 16.43 1.34C16.25 1.34 15.97 1.29 15.65 1.11C14.08 0.37 12.28 0 10.52 0L10.43 0C5.91 0 1.29 2.72 1.29 8.08C1.29 10.02 2.26 12.42 4.06 13.8C4.43 14.08 4.57 14.22 4.57 14.35C4.57 14.49 4.29 14.59 3.97 14.77C2.17 15.74 1.34 17.17 1.34 18.88C1.34 20.08 2.08 21.6 3.88 22.15Z M10.665 3.969C7.935 3.969 5.815 5.679 5.815 8.029C5.815 9.229 6.365 11.999 10.475 11.999C13.205 11.999 15.505 10.659 15.505 7.989C15.505 5.909 14.125 3.969 10.665 3.969Z M11.355 23.032C5.265 23.032 4.615 26.772 4.615 27.322C4.615 27.742 4.755 30.922 11.405 30.922C12.695 30.922 18.695 30.742 18.695 26.542C18.695 23.032 14.865 23.032 11.355 23.032Z " /><path id="分组 10" fill-rule="evenodd" style="fill:#9C9C9C" transform="translate(92.13099999999997 12.232)  rotate(0 12.02000000000001 17.7665)" opacity="1" d="M23.47 4.44C23.85 4 24.04 3.39 24.04 2.79C24.04 1.89 23.75 1.3 23.33 0.9C22.6 0.22 21.43 0.14 20.51 0.14C20.04 0.14 19.61 0.2 19.15 0.34C18.62 0.49 18.05 0.75 17.3 1.14C17.3 1.14 17.3 1.14 17.29 1.14C17.19 1.2 17.09 1.25 16.99 1.29C16.89 1.32 16.79 1.34 16.68 1.34C16.59 1.34 16.48 1.32 16.35 1.28C16.25 1.25 16.14 1.21 16.02 1.14C16.02 1.14 16.01 1.13 16 1.13C15.2 0.75 14.34 0.47 13.45 0.28C12.57 0.09 11.67 0 10.77 0L10.68 0C8.32 0 5.94 0.73 4.17 2.16C2.44 3.55 1.29 5.61 1.29 8.33C1.29 9.36 1.56 10.52 2.07 11.6C2.56 12.62 3.26 13.56 4.16 14.25L4.45 14.48C4.48 14.51 4.51 14.54 4.54 14.57L4.1 14.8C3.2 15.28 2.54 15.88 2.09 16.55C1.58 17.31 1.34 18.18 1.34 19.13C1.34 19.84 1.58 20.65 2.12 21.34C2.55 21.9 3.19 22.38 4.05 22.64L4.13 22.67C3.03 23.14 2.01 23.81 1.27 24.67C0.49 25.58 0 26.7 0 28.04C0 29.68 0.85 31.7 2.93 33.22C4.76 34.56 7.55 35.53 11.56 35.53C15.23 35.53 18.85 34.63 21.23 32.63C22.96 31.19 24.04 29.17 24.04 26.51C24.04 24.62 23.29 22.82 21.72 21.47C20.05 20.04 17.44 19.11 13.77 19.11C10.32 19.11 8.46 19.07 7.45 18.92C6.65 18.8 6.5 18.67 6.5 18.34C6.5 17.62 7.08 17.18 7.84 16.88C8.89 16.47 10.29 16.36 11.33 16.33C11.34 16.33 11.34 16.33 11.34 16.33C14.01 16.22 16.12 15.49 17.61 14.29C19.38 12.87 20.3 10.8 20.3 8.33C20.3 7.72 20.28 7.28 20.24 6.91C20.17 6.42 20.06 6.04 19.87 5.52L19.84 5.34C19.86 5.33 19.87 5.33 19.89 5.32C20.03 5.25 20.15 5.17 20.31 5.12C20.42 5.09 20.56 5.07 20.74 5.07C20.82 5.07 20.92 5.07 21.03 5.08L21.52 5.15C21.63 5.16 21.73 5.16 21.85 5.16C22.56 5.16 23.1 4.87 23.47 4.44Z M19.66 4.87C19.84 4.79 19.98 4.7 20.17 4.65C20.32 4.6 20.5 4.57 20.74 4.57C20.84 4.57 20.98 4.57 21.13 4.58L21.61 4.66C21.69 4.66 21.77 4.66 21.85 4.66C22.4 4.66 22.81 4.45 23.09 4.12C23.39 3.76 23.54 3.28 23.54 2.79C23.54 1.85 23.18 1.32 22.66 1.03C22.03 0.67 21.19 0.64 20.51 0.64C20.09 0.64 19.71 0.69 19.29 0.82C18.79 0.97 18.24 1.21 17.54 1.58C17.41 1.65 17.28 1.72 17.15 1.76C17 1.81 16.85 1.84 16.68 1.84C16.56 1.84 16.39 1.82 16.2 1.76C16.07 1.72 15.93 1.67 15.78 1.58C15.01 1.22 14.19 0.95 13.34 0.77C12.5 0.59 11.63 0.5 10.77 0.5L10.68 0.5C8.44 0.5 6.17 1.18 4.48 2.55C2.87 3.85 1.79 5.78 1.79 8.33C1.79 9.29 2.04 10.38 2.52 11.39C2.97 12.33 3.62 13.21 4.46 13.85C4.68 14.02 4.82 14.14 4.91 14.24C5.03 14.37 5.07 14.49 5.07 14.6C5.07 14.72 5.02 14.83 4.9 14.92C4.79 15.01 4.58 15.1 4.34 15.24C4.34 15.24 4.34 15.24 4.34 15.24C3.52 15.68 2.92 16.21 2.5 16.83C2.05 17.51 1.84 18.28 1.84 19.13C1.84 19.74 2.05 20.44 2.51 21.03C2.89 21.52 3.44 21.93 4.2 22.17C4.41 22.23 4.54 22.29 4.62 22.35C4.76 22.46 4.79 22.58 4.79 22.68C4.79 22.74 4.76 22.85 4.67 22.94C4.61 23 4.52 23.06 4.4 23.1C3.34 23.55 2.36 24.17 1.65 25C0.94 25.82 0.5 26.83 0.5 28.04C0.5 29.56 1.3 31.41 3.23 32.82C4.99 34.11 7.68 35.03 11.56 35.03C15.11 35.03 18.61 34.18 20.91 32.25C22.53 30.9 23.54 29.01 23.54 26.51C23.54 24.37 22.51 22.37 20.3 21.08C18.73 20.16 16.57 19.61 13.77 19.61C10.28 19.61 8.39 19.56 7.37 19.41C6.69 19.31 6.36 19.15 6.19 18.96C6.05 18.79 6 18.59 6 18.34C6 17.41 6.68 16.79 7.66 16.41C8.76 15.99 10.23 15.86 11.32 15.83C13.87 15.73 15.87 15.04 17.3 13.9C18.95 12.57 19.8 10.64 19.8 8.33C19.8 7.74 19.79 7.33 19.74 6.97C19.68 6.52 19.58 6.17 19.4 5.69L19.36 5.51C19.34 5.43 19.34 5.37 19.34 5.33C19.34 5.16 19.39 5.07 19.45 5.01C19.5 4.95 19.58 4.92 19.66 4.87Z M17.165 23.662C15.705 23.042 13.605 23.032 11.605 23.032C9.095 23.032 7.485 23.662 6.445 24.432C4.855 25.642 4.615 27.222 4.615 27.572C4.615 27.862 4.665 29.392 6.595 30.442C7.625 31.002 9.205 31.422 11.655 31.422C12.505 31.422 15.345 31.342 17.275 30.142C18.385 29.442 19.195 28.392 19.195 26.792C19.195 25.122 18.385 24.192 17.165 23.662Z M16.965 24.122C15.555 23.522 13.535 23.532 11.605 23.532C9.755 23.532 8.415 23.882 7.455 24.392C5.425 25.462 5.115 27.222 5.115 27.572C5.115 27.822 5.185 29.102 6.835 30.002C7.815 30.532 9.325 30.922 11.655 30.922C12.465 30.922 15.175 30.862 17.005 29.712C17.975 29.112 18.695 28.192 18.695 26.792C18.695 25.372 18.015 24.572 16.965 24.122Z M14.425 4.949C13.615 4.349 12.465 3.969 10.915 3.969C9.565 3.969 8.355 4.369 7.455 5.059C6.445 5.829 5.815 6.959 5.815 8.279C5.815 9.079 6.055 10.539 7.305 11.519C8.035 12.089 9.125 12.499 10.725 12.499C12.095 12.499 13.365 12.169 14.305 11.519C15.345 10.809 16.005 9.709 16.005 8.239C16.005 6.969 15.525 5.759 14.425 4.949Z M14.135 5.349C13.385 4.809 12.335 4.469 10.915 4.469C9.685 4.469 8.575 4.829 7.755 5.459C6.865 6.129 6.315 7.119 6.315 8.279C6.315 8.989 6.515 10.269 7.615 11.119C8.275 11.639 9.265 11.999 10.725 11.999C11.985 11.999 13.155 11.709 14.025 11.109C14.935 10.489 15.505 9.529 15.505 8.239C15.505 7.129 15.095 6.059 14.135 5.349Z " /><path id="路径 31" fill-rule="evenodd" style="fill:#000000" transform="translate(120.49099999999993 12.665999999999999)  rotate(0 9.808500000000038 11.516499999999999)" opacity="0.02" d="M0.18,10.52C0.18,13.25 0.14,16.29 0,20.68L0,20.77C0,22.25 1.2,23.03 2.45,23.03C4.29,23.03 4.85,21.65 4.8,20.68C4.71,17.4 4.66,14.96 4.66,13.06C4.66,11.77 4.66,10.71 4.71,9.88C4.85,6.79 8.22,4.29 11.03,4.29C12.97,4.29 14.58,5.45 14.77,8.31C14.82,9.05 14.86,10.62 14.86,12.46C14.86,15.28 14.82,18.79 14.77,20.68L14.77,20.73C14.77,22.2 15.97,23.03 17.17,23.03C18.37,23.03 19.52,22.25 19.57,20.59C19.62,19.62 19.62,18.33 19.62,16.89C19.62,13.48 19.52,9.37 19.48,7.71C19.29,2.54 15.56,0 11.68,0C9.28,0 6.83,0.92 5.12,2.77C5.03,2.86 4.94,2.96 4.89,2.96C4.85,2.96 4.85,2.91 4.85,2.86L4.85,2.72C4.85,2.59 4.89,2.45 4.89,2.26C4.89,0.79 3.69,0.09 2.54,0.09C1.38,0.09 0.05,0.79 0.05,2.17L0.05,2.26C0.14,5.36 0.18,7.76 0.18,10.52Z " /><path id="分组 11" fill-rule="evenodd" style="fill:#9C9C9C" transform="translate(120.24099999999993 12.416000000000004)  rotate(0 10.058500000000038 11.766499999999997)" opacity="1" d="M17.42 23.53C18.13 23.53 18.83 23.28 19.33 22.76C19.76 22.32 20.05 21.69 20.07 20.85C20.09 20.41 20.1 19.91 20.11 19.36C20.12 18.69 20.12 17.94 20.12 17.14C20.12 15.66 20.1 14.04 20.08 12.55C20.05 10.61 20 8.89 19.98 7.95C19.98 7.95 19.98 7.95 19.98 7.95C19.89 5.46 18.99 3.56 17.66 2.24C16.15 0.75 14.06 0 11.93 0C10.68 0 9.43 0.24 8.27 0.72C7.2 1.17 6.21 1.81 5.38 2.65L5.39 2.51C5.39 1.72 5.08 1.13 4.61 0.73C4.12 0.3 3.45 0.09 2.79 0.09C2.15 0.09 1.47 0.29 0.94 0.67C0.41 1.06 0.05 1.65 0.05 2.42L0.05 2.52C0.09 4.02 0.13 5.35 0.15 6.65C0.17 8.02 0.18 9.35 0.18 10.77C0.18 12.3 0.17 13.93 0.13 15.85C0.1 17.34 0.06 19 0 20.92L0 21.02C0 21.82 0.32 22.44 0.81 22.87C1.31 23.3 2 23.53 2.7 23.53C3.58 23.53 4.19 23.24 4.6 22.83C5.14 22.29 5.33 21.53 5.3 20.92C5.25 19.18 5.21 17.67 5.19 16.36C5.17 15.2 5.16 14.2 5.16 13.31C5.16 12.61 5.16 11.97 5.17 11.4C5.17 10.94 5.19 10.52 5.21 10.14C5.21 10.14 5.21 10.14 5.21 10.14C5.27 8.67 6.11 7.35 7.25 6.39C8.42 5.41 9.92 4.79 11.28 4.79C12.28 4.79 13.19 5.12 13.83 5.87C14.35 6.48 14.69 7.37 14.77 8.57C14.79 8.94 14.82 9.51 14.83 10.23C14.85 10.94 14.86 11.79 14.86 12.71C14.86 14.01 14.85 15.45 14.84 16.82C14.82 18.42 14.8 19.9 14.77 20.92L15.02 21.18L14.77 20.93L15.02 21.22L14.77 20.98C14.77 21.76 15.08 22.39 15.55 22.82C16.05 23.29 16.74 23.53 17.42 23.53Z M19.57 20.83C19.57 20.83 19.57 20.83 19.57 20.83C19.59 20.39 19.6 19.9 19.61 19.36C19.62 18.68 19.62 17.93 19.62 17.14C19.62 15.66 19.6 14.04 19.58 12.56C19.55 10.62 19.5 8.9 19.48 7.97C19.39 5.62 18.56 3.84 17.31 2.6C15.89 1.19 13.93 0.5 11.93 0.5C10.75 0.5 9.56 0.73 8.46 1.19C7.38 1.63 6.38 2.3 5.56 3.19C5.55 3.19 5.55 3.19 5.55 3.2C5.47 3.27 5.4 3.35 5.34 3.39C5.26 3.44 5.19 3.46 5.14 3.46C5.04 3.46 4.97 3.41 4.92 3.35C4.88 3.3 4.85 3.21 4.85 3.11L4.85 2.97L4.89 2.51C4.89 1.89 4.65 1.42 4.29 1.11C3.88 0.76 3.33 0.59 2.79 0.59C2.26 0.59 1.68 0.75 1.24 1.08C0.83 1.38 0.55 1.83 0.55 2.42L0.55 2.51C0.59 4.01 0.62 5.34 0.65 6.64C0.67 8.02 0.68 9.35 0.68 10.77C0.68 12.31 0.67 13.94 0.63 15.86C0.6 17.35 0.56 19.01 0.5 20.93L0.5 21.02C0.5 21.66 0.75 22.15 1.14 22.49C1.55 22.85 2.12 23.03 2.7 23.03C3.41 23.03 3.91 22.81 4.24 22.48C4.68 22.04 4.82 21.43 4.8 20.94C4.8 20.94 4.8 20.94 4.8 20.94C4.75 19.19 4.72 17.68 4.69 16.36C4.67 15.21 4.66 14.2 4.66 13.31C4.66 12.61 4.66 11.97 4.67 11.4C4.68 10.92 4.69 10.49 4.71 10.11C4.78 8.51 5.68 7.06 6.93 6.01C8.19 4.95 9.81 4.29 11.28 4.29C12.43 4.29 13.48 4.68 14.21 5.54C14.79 6.22 15.18 7.2 15.27 8.54C15.29 8.91 15.32 9.49 15.33 10.21C15.35 10.93 15.36 11.79 15.36 12.71C15.36 14.01 15.35 15.46 15.34 16.82C15.32 18.42 15.3 19.91 15.27 20.93C15.27 20.93 15.27 20.93 15.27 20.93C15.27 20.95 15.26 20.97 15.25 20.99L15.27 20.98C15.27 21.61 15.52 22.11 15.89 22.46C16.3 22.83 16.86 23.03 17.42 23.03C18 23.03 18.57 22.83 18.97 22.41C19.32 22.05 19.55 21.52 19.57 20.83Z " /></g><g opacity="1" transform="translate(0 0.46999999999999886)  rotate(0 108.036 24.289)"><path id="分组 13" fill-rule="evenodd" style="fill:#4F4F4F" transform="translate(0 0)  rotate(0 12.717 18.514999999999997)" opacity="1" d="M16.8 16.75C16.8 16.65 17.08 16.56 17.56 16.46C20.9 15.99 23.29 12.45 23.29 8.83C23.29 4.82 20.33 0.62 12.41 0.09C11.69 0.05 10.69 0 9.64 0C5.58 0 0.29 0.09 0.14 6.06C0.05 9.11 0 15.6 0 21.43C0 25.29 0 28.87 0.1 30.87C0.29 36.84 5.77 37.03 10.4 37.03C11.6 37.03 12.84 36.98 13.46 36.93C21.71 36.46 25.43 30.97 25.43 25.86C25.43 21.43 22.67 17.32 17.51 16.94C16.99 16.89 16.8 16.8 16.8 16.75Z M9.451 4.915C6.391 4.915 5.441 5.295 5.301 7.105C5.201 8.255 5.251 10.975 5.201 13.745C5.201 14.745 5.871 14.745 9.021 14.745C10.161 14.745 11.401 14.745 12.261 14.695C15.701 14.505 17.891 11.835 17.891 9.305C17.891 7.065 16.131 4.965 11.931 4.965C11.931 4.965 10.691 4.915 9.451 4.915Z M19.944 25.338C19.944 22.528 18.034 19.758 13.644 19.418C12.454 19.328 11.214 19.278 10.024 19.278C5.584 19.278 5.154 19.418 5.154 20.378C5.154 26.338 5.154 28.538 5.294 29.828C5.534 31.588 6.014 32.158 10.454 32.158C11.544 32.158 12.744 32.118 13.644 32.068C17.604 31.828 19.944 28.538 19.944 25.338Z " /><path id="分组 14" fill-rule="evenodd" style="fill:#4F4F4F" transform="translate(30.922000000000004 0.14300000000000423)  rotate(0 3.3405000000000005 18.323999999999998)" opacity="1" d="M6.68 3.25C6.68 1.43 5.06 0 3.34 0C2 0 0 0.91 0 3.25C0 5.44 1.48 6.63 3.34 6.63C5.39 6.63 6.68 4.96 6.68 3.25Z M3.3396 36.653C4.6296 36.653 5.9196 35.833 5.9196 34.213L5.9196 34.123C5.8696 31.493 5.8196 28.103 5.8196 24.813C5.8196 20.803 5.8696 17.033 5.9196 15.083L5.9196 14.983C5.9196 13.453 4.6296 12.693 3.3896 12.693C1.9596 12.693 0.7596 13.553 0.8096 15.123C0.8596 16.413 0.8596 18.323 0.8596 20.473C0.8596 24.813 0.8096 30.253 0.8096 34.213C0.8096 35.833 2.0496 36.653 3.3396 36.653Z " /><path id="路径 39" fill-rule="evenodd" style="fill:#4F4F4F" transform="translate(44.903999999999996 12.884000000000011)  rotate(0 6.8475 11.881999999999998)" opacity="1" d="M0.05,2.29C0.14,5.49 0.19,7.97 0.19,10.83C0.19,13.65 0.14,16.8 0,21.33L0,21.43C0,22.95 1.24,23.76 2.53,23.76C4.44,23.76 5.01,22.33 4.96,21.33C4.87,17.94 4.82,15.56 4.82,13.7C4.82,12.41 4.82,11.41 4.87,10.55C5.01,7.54 8.16,5.2 10.98,4.92C12.84,4.72 13.7,3.48 13.7,2.29C13.7,1.1 12.84,0 11.36,0C9.73,0 7.16,0.81 5.25,2.91C5.15,3.05 5.06,3.1 5.06,3.1C5.01,3.1 5.01,3.05 5.01,2.96L5.01,2.77C5.01,2.62 5.06,2.48 5.06,2.29C5.06,0.76 3.82,0.05 2.62,0.05C1.43,0.05 0.05,0.76 0.05,2.2L0.05,2.29Z " /><path id="分组 15" fill-rule="evenodd" style="fill:#4F4F4F" transform="translate(61.509999999999984 0.3340000000000103)  rotate(0 12.502500000000005 18.2045)" opacity="1" d="M19.37 32.88C19.47 32.88 19.52 32.97 19.57 33.16C20.23 35.79 21.14 36.17 22.24 36.17C23.62 36.17 25.01 35.07 25.01 33.55C25.01 33.12 24.91 32.69 24.67 32.26C23.29 29.59 23.24 29.44 23.24 11.74C23.24 7.73 23.29 4.34 23.38 2.72L23.38 2.48C23.38 0.81 22.14 0 20.9 0C19.52 0 18.42 1 18.47 2.48C18.52 4.49 18.61 9.35 18.61 14.89C18.61 15.03 18.56 15.08 18.47 15.08C18.42 15.08 18.32 15.08 18.28 15.03C16.51 13.46 14.27 12.45 11.6 12.45C5.01 12.45 0 17.47 0 24.43C0 31.64 5.01 36.41 11.6 36.41C14.7 36.41 17.27 35.07 19.14 33.07C19.23 32.97 19.33 32.88 19.37 32.88Z M18.56 24.427C18.56 19.707 15.51 16.797 11.69 16.797C7.87 16.797 4.82 19.707 4.82 24.427C4.82 29.107 7.87 31.967 11.69 31.967C15.51 31.967 18.56 29.107 18.56 24.427Z " /><path id="分组 16" fill-rule="evenodd" style="fill:#4F4F4F" transform="translate(92.81400000000001 12.788)  rotate(0 11.691000000000003 17.895000000000003)" opacity="1" d="M2.53 35.79C4.01 35.79 5.01 34.79 4.96 33.31C4.92 31.35 4.82 26.82 4.82 21.57C4.82 21.38 4.87 21.28 4.96 21.28C5.01 21.28 5.11 21.38 5.2 21.43C6.97 22.95 9.21 23.96 11.83 23.96C18.42 23.96 23.38 18.95 23.38 11.98C23.38 4.77 18.42 0 11.83 0C9.21 0 6.97 0.96 5.2 2.48C5.15 2.53 5.11 2.53 5.06 2.53C5.01 2.53 4.96 2.48 4.91 2.39C4.72 0.96 3.63 0.19 2.53 0.19C1.29 0.19 0.05 1.1 0.05 2.86C0.05 7.4 0.14 16.37 0.14 23.57C0.14 27.77 0.14 31.35 0 33.07L0 33.31C0 34.93 1.24 35.79 2.53 35.79Z M18.607 11.978C18.607 7.298 15.557 4.438 11.737 4.438C7.917 4.438 4.867 7.298 4.867 11.978C4.867 16.698 7.917 19.608 11.737 19.608C15.557 19.608 18.607 16.698 18.607 11.978Z " /><path id="分组 17" fill-rule="evenodd" style="fill:#4F4F4F" transform="translate(120.68200000000002 12.598000000000004)  rotate(0 10.856000000000002 12.167999999999997)" opacity="1" d="M13.65 7.16C13.65 8.16 13.27 8.73 12.79 8.78C12.02 8.83 7.92 9.73 4.63 10.88C1.43 11.98 0 14.41 0 16.84C0 20.52 3.1 24.34 8.35 24.34C11.17 24.34 14.17 23.33 15.8 21.47C15.89 21.38 15.99 21.33 16.08 21.33C16.13 21.33 16.22 21.38 16.27 21.47C16.7 22.19 17.13 22.71 17.56 23.05C18.13 23.52 18.75 23.76 19.28 23.76C20.66 23.76 21.71 22.24 21.71 20.9C21.71 20.23 21.47 19.61 20.95 19.23C20.57 18.94 18.8 18.8 18.37 14.98C18.32 14.7 18.32 14.32 18.32 13.89C18.32 12.45 18.47 10.64 18.56 9.93C18.61 9.26 18.66 8.68 18.66 8.06C18.66 2.58 15.8 0 10.55 0C5.73 0 1.53 2.53 1.53 4.82C1.53 6.06 2.58 7.01 3.82 7.01C4.39 7.01 5.06 6.78 5.58 6.15C6.49 5.15 8.11 4.15 10.26 4.15C13.5 4.15 13.65 6.58 13.65 7.16Z M13.168 12.788C5.108 13.788 4.628 15.798 4.628 16.938C4.628 18.418 5.918 19.898 8.348 19.898C12.218 19.898 13.888 17.938 13.888 14.558C13.888 13.838 13.788 12.788 13.218 12.788L13.168 12.788Z " /><path id="分组 18" fill-rule="evenodd" style="fill:#4F4F4F" transform="translate(147.07 12.788)  rotate(0 11.691500000000005 17.895000000000003)" opacity="1" d="M2.53 0.19C1.29 0.19 0.05 1.1 0.05 2.86C0.05 7.4 0.14 16.37 0.14 23.57C0.14 27.77 0.14 31.35 0 33.07L0 33.31C0 34.93 1.24 35.79 2.53 35.79C4.01 35.79 5.01 34.79 4.96 33.31C4.91 31.35 4.82 26.82 4.82 21.57C4.82 21.38 4.87 21.28 4.96 21.28C5.01 21.28 5.11 21.38 5.2 21.43C6.97 22.95 9.21 23.96 11.84 23.96C18.42 23.96 23.38 18.95 23.38 11.98C23.38 4.77 18.42 0 11.84 0C9.21 0 6.97 0.96 5.2 2.48C5.15 2.53 5.11 2.53 5.06 2.53C5.01 2.53 4.96 2.48 4.91 2.39C4.72 0.96 3.63 0.19 2.53 0.19Z M18.608 11.978C18.608 7.298 15.558 4.438 11.738 4.438C7.918 4.438 4.868 7.298 4.868 11.978C4.868 16.698 7.918 19.608 11.738 19.608C15.558 19.608 18.608 16.698 18.608 11.978Z " /><path id="分组 19" fill-rule="evenodd" style="fill:#4F4F4F" transform="translate(174.747 12.59800000000001)  rotate(0 10.903999999999996 12.168)" opacity="1" d="M5.35 12.65C14.6 12.65 15.6 12.65 17.08 12.6C20.14 12.5 21.62 10.69 21.62 8.45C21.62 4.82 17.89 0 11.31 0C5.15 0 0 5.01 0 12.31C0 19.42 4.87 24.34 11.41 24.34C16.22 24.34 18.8 22.76 21.09 20.38C21.62 19.85 21.81 19.28 21.81 18.7C21.81 17.37 20.57 16.22 19.28 16.22C18.71 16.22 18.13 16.46 17.66 16.99C16.27 18.47 14.46 19.9 11.45 19.9C8.06 19.9 5.01 17.51 4.96 13.55C4.96 13.03 5.06 12.65 5.35 12.65Z M16.653 7.631C16.653 6.971 15.653 4.151 11.363 4.151C7.493 4.151 5.393 7.491 5.393 8.301C5.393 8.731 5.873 8.731 10.303 8.731C12.263 8.731 14.413 8.731 15.703 8.681C16.273 8.641 16.653 8.211 16.653 7.631Z " /><path id="路径 50" fill-rule="evenodd" style="fill:#4F4F4F" transform="translate(202.377 12.884000000000011)  rotate(0 6.847499999999997 11.881999999999998)" opacity="1" d="M5.01,2.77C5.01,2.62 5.06,2.48 5.06,2.29C5.06,0.76 3.82,0.05 2.62,0.05C1.43,0.05 0.05,0.76 0.05,2.2L0.05,2.29C0.14,5.49 0.19,7.97 0.19,10.83C0.19,13.65 0.14,16.8 0,21.33L0,21.43C0,22.95 1.24,23.76 2.53,23.76C4.44,23.76 5.01,22.33 4.96,21.33C4.87,17.94 4.82,15.56 4.82,13.7C4.82,12.41 4.82,11.41 4.87,10.55C5.01,7.54 8.16,5.2 10.97,4.92C12.84,4.72 13.69,3.48 13.69,2.29C13.69,1.1 12.84,0 11.36,0C9.73,0 7.16,0.81 5.25,2.91C5.15,3.05 5.06,3.1 5.06,3.1C5.01,3.1 5.01,3.05 5.01,2.96L5.01,2.77Z " /></g></g></g></svg>