<svg xmlns="http://www.w3.org/2000/svg" xmlns:xlink="http://www.w3.org/1999/xlink" width="880" height="119" viewBox="0 0 880 119" fill="none"><defs><rect id="path_0" x="0" y="0" width="880" height="118.59838274932616" /></defs><g opacity="1" transform="translate(0 0)  rotate(0 440 59.29919137466308)"><mask id="bg-mask-0" fill="white"><use xlink:href="#path_0"></use></mask><g mask="url(#bg-mask-0)" ><g opacity="1" transform="translate(546.2143396226415 0.5929919137466307)  rotate(0 166.4623180592992 56.648517520215634)"><path id="分组 2" fill-rule="evenodd" style="fill:#000000" transform="translate(0.5929919137466868 0.5929919137466307)  rotate(0 36.732291105121305 42.479568733153634)" opacity="0.02" d="M34.27 0.22C32.63 0.11 29.34 0 25.95 0C12.37 0 1.53 0.44 0.66 15.44C0.33 21.35 0 34.05 0 46.09C0 55.29 0.22 64.16 0.55 69.52C1.64 84.85 17.19 84.96 25.95 84.96C37.33 84.96 73.46 84.85 73.46 42.26C73.46 19.49 59.56 1.86 34.27 0.22Z M24.4107 11.8243C19.1607 11.8243 13.2507 11.9343 12.9207 17.4043C12.5907 22.0043 12.2607 34.5943 12.2607 46.4243C12.2607 55.0743 12.4807 63.1743 12.9207 67.3343C13.4607 72.3643 16.8607 73.2443 25.9507 73.2443C37.4407 73.2443 60.5407 73.2443 60.5407 42.2643C60.5407 24.6343 49.9207 11.9343 33.1707 11.9343C33.1707 11.9343 28.4707 11.8243 24.4107 11.8243Z " /><path id="分组 3" fill-rule="evenodd" style="fill:#9C9C9C" transform="translate(0 0)  rotate(0 37.32528301886789 43.072560646900264)" opacity="1" d="M0.66 16C0.47 19.37 0.28 24.94 0.16 31.34C0.06 36.18 0 41.5 0 46.69C0 51.64 0.06 56.5 0.17 60.76C0.27 64.43 0.4 67.67 0.55 70.15C0.55 70.15 0.55 70.16 0.55 70.16C0.97 76 3.42 79.71 6.79 82.07C12.49 86.06 20.9 86.15 26.54 86.15C33.55 86.15 49.83 86.08 61.5 76.33C69.01 70.04 74.65 59.75 74.65 42.85C74.65 31.04 70.95 20.6 63.91 12.99C57.19 5.73 47.43 1.03 34.9 0.22C33.95 0.16 32.46 0.09 30.72 0.05C29.42 0.02 27.99 0 26.54 0C18.3 0 11.06 0.21 6.36 3.57C3.11 5.9 1.02 9.71 0.66 16Z M63.046 13.796C56.506 6.73598 47.006 2.19598 34.826 1.40598C33.886 1.33598 32.406 1.27598 30.686 1.23598C29.406 1.20598 27.986 1.18598 26.536 1.18598C18.586 1.18598 11.586 1.28598 7.04598 4.53598C4.04598 6.69598 2.18598 10.246 1.83598 16.066C1.65598 19.426 1.46598 24.986 1.34598 31.366C1.24598 36.196 1.18598 41.506 1.18598 46.686C1.18598 51.626 1.24598 56.476 1.35598 60.736C1.45598 64.386 1.57598 67.606 1.73598 70.076C2.11598 75.476 4.35598 78.916 7.47598 81.106C12.966 84.956 21.096 84.956 26.536 84.956C33.396 84.956 49.326 84.946 60.736 75.416C68.046 69.306 73.466 59.276 73.466 42.856C73.466 31.366 69.886 21.196 63.046 13.796Z M12.4407 59.5843C12.5507 63.0543 12.7107 65.9743 12.9207 67.9843L12.9207 67.9943C13.2307 70.8443 14.3907 72.4743 16.8007 73.3943C18.9007 74.2043 22.0307 74.4343 26.5407 74.4343C33.4907 74.4343 44.6007 74.3943 52.4607 67.7643C57.8307 63.2343 61.7307 55.6343 61.7307 42.8543C61.7307 34.1043 59.1507 26.5543 54.5507 21.1143C49.6807 15.3543 42.5507 11.9343 33.7707 11.9343L25.0107 11.8243C21.9207 11.8243 18.6207 11.8843 16.2907 12.9643C14.3907 13.8343 13.0807 15.3443 12.9207 17.9643C12.7607 20.2343 12.5907 24.4643 12.4707 29.5843C12.3507 34.8343 12.2607 41.0243 12.2607 47.0143C12.2607 51.5143 12.3207 55.8643 12.4407 59.5843Z M17.2267 72.2902C19.2267 73.0602 22.2367 73.2502 26.5367 73.2502C33.2767 73.2502 44.0667 73.2802 51.6967 66.8502C56.8667 62.5002 60.5467 55.1602 60.5467 42.8502C60.5467 34.4202 58.0767 27.1302 53.6367 21.8802C48.9867 16.3802 42.1667 13.1202 33.7667 13.1202L25.0067 13.0102C22.0967 13.0102 18.9867 13.0202 16.7867 14.0402C15.2667 14.7402 14.2267 15.9502 14.1067 18.0402C14.1067 18.0402 14.1067 18.0402 14.1067 18.0402C13.9467 20.3102 13.7767 24.5202 13.6567 29.6202C13.5367 34.8502 13.4467 41.0302 13.4467 47.0102C13.4467 51.5002 13.5067 55.8402 13.6267 59.5502C13.7367 62.9802 13.8967 65.8702 14.0967 67.8602C14.3567 70.1902 15.2667 71.5402 17.2267 72.2902Z " /><path id="分组 4" fill-rule="evenodd" style="fill:#000000" transform="translate(84.89509433962246 29.497789757412427)  rotate(0 25.017142857142847 27.918059299191373)" opacity="0.02" d="M50.03 42.92C50.03 39.85 47.19 37.22 44.23 37.22C42.92 37.22 41.6 37.77 40.51 38.98C37.33 42.37 33.17 45.65 26.28 45.65C18.5 45.65 11.5 40.18 11.39 31.09C11.39 29.89 11.61 29.01 12.26 29.01C33.5 29.01 35.8 29.01 39.2 28.9C46.2 28.68 49.6 24.52 49.6 19.38C49.6 11.06 41.06 0 25.95 0C11.82 0 0 11.49 0 28.25C0 44.56 11.17 55.84 26.17 55.84C37.23 55.84 43.14 52.22 48.39 46.75C49.6 45.54 50.03 44.23 50.03 42.92Z M38.2122 17.5135C38.2122 15.9834 35.9122 9.52345 26.0622 9.52345C17.1922 9.52345 12.3722 17.1834 12.3722 19.0534C12.3722 20.0335 13.4722 20.0335 23.6522 20.0335C28.1422 20.0335 33.0622 20.0335 36.0222 19.9235C37.3322 19.8134 38.2122 18.8335 38.2122 17.5135Z " /><path id="分组 5" fill-rule="evenodd" style="fill:#9C9C9C" transform="translate(84.30210242587611 28.904797843665772)  rotate(0 25.61013477088948 28.511051212938)" opacity="1" d="M12.63 30.79C12.66 30.62 12.69 30.48 12.74 30.35C12.78 30.28 12.78 30.2 12.86 30.2C24.94 30.2 30.89 30.2 34.41 30.18C37.08 30.16 38.34 30.14 39.81 30.09C43.17 29.98 45.73 29 47.53 27.46C49.7 25.61 50.78 22.95 50.78 19.97C50.78 15.1 47.97 9.31 42.66 5.21C38.66 2.12 33.23 0 26.54 0C18.98 0 12.06 3.22 7.19 8.74C2.75 13.76 0 20.69 0 28.84C0 36.96 2.72 43.85 7.27 48.79C12.07 53.99 18.9 57.02 26.76 57.02C31.8 57.02 35.79 56.28 39.14 54.97C43.28 53.34 46.45 50.84 49.41 47.76C50.03 47.14 50.46 46.49 50.75 45.83C51.08 45.07 51.22 44.29 51.22 43.51C51.22 41.82 50.45 40.25 49.26 39.1C48.07 37.95 46.46 37.22 44.83 37.22C44.05 37.22 43.26 37.4 42.52 37.76C41.87 38.07 41.24 38.54 40.67 39.17C38.98 40.97 37.01 42.75 34.47 43.98C32.37 45 29.89 45.65 26.87 45.65C23.02 45.65 19.36 44.26 16.71 41.71C14.22 39.32 12.62 35.91 12.57 31.68C12.57 31.35 12.59 31.05 12.63 30.79Z M11.386 31.696C11.386 31.686 11.386 31.686 11.386 31.686C11.386 30.836 11.506 30.136 11.746 29.706C11.996 29.246 12.366 29.016 12.856 29.016C24.936 29.016 30.886 29.016 34.396 28.996C37.056 28.976 38.306 28.946 39.766 28.906C42.806 28.806 45.136 27.946 46.766 26.556C48.666 24.936 49.596 22.586 49.596 19.976C49.596 15.406 46.916 9.98598 41.946 6.15598C38.116 3.20598 32.926 1.18598 26.546 1.18598C19.326 1.18598 12.726 4.25598 8.07598 9.52598C3.81598 14.346 1.18598 21.006 1.18598 28.836C1.18598 36.626 3.77598 43.246 8.14598 47.986C12.716 52.946 19.246 55.836 26.756 55.836C31.626 55.836 35.476 55.126 38.706 53.856C42.686 52.306 45.716 49.896 48.556 46.936C48.566 46.926 48.566 46.926 48.566 46.926C49.076 46.416 49.426 45.896 49.666 45.356C49.926 44.756 50.036 44.126 50.036 43.506C50.036 42.146 49.396 40.886 48.436 39.956C47.466 39.016 46.156 38.406 44.826 38.406C44.216 38.406 43.616 38.546 43.036 38.826C42.506 39.076 42.006 39.456 41.546 39.966C41.536 39.966 41.536 39.976 41.536 39.976C39.756 41.876 37.666 43.746 34.986 45.046C32.746 46.136 30.096 46.836 26.866 46.836C22.706 46.836 18.756 45.326 15.886 42.566C13.186 39.966 11.446 36.276 11.386 31.696Z M36.6622 21.1035C37.4822 21.0434 38.1622 20.6935 38.6422 20.1635C39.1222 19.6334 39.3922 18.9235 39.3922 18.1134C39.3922 17.0234 38.3722 13.5835 34.5922 11.4035C32.7122 10.3134 30.1322 9.52345 26.6522 9.52345C23.1122 9.52345 20.1922 10.6934 17.9422 12.2535C14.2422 14.8034 12.3722 18.4235 12.3722 19.6434C12.3722 20.2334 12.5322 20.6935 13.6022 20.9435C14.7722 21.2134 17.5922 21.2234 24.2422 21.2234C26.7222 21.2234 29.3322 21.2234 31.6722 21.2034C33.5822 21.1834 35.3022 21.1635 36.6322 21.1134C36.6422 21.1134 36.6522 21.1134 36.6622 21.1035Z M33.9982 12.4294C32.2582 11.4194 29.8682 10.7094 26.6482 10.7094C23.3882 10.7094 20.6882 11.7894 18.6182 13.2294C15.3482 15.4794 13.5582 18.5694 13.5582 19.6394C13.5582 19.7294 13.6382 19.7294 13.7782 19.7594C14.2082 19.8794 14.9182 19.9394 16.0782 19.9794C17.7582 20.0394 20.3282 20.0294 24.2382 20.0294C26.7182 20.0294 29.3282 20.0294 31.6582 20.0194C33.5482 19.9994 35.2582 19.9694 36.5782 19.9294L36.5782 19.9294C37.0682 19.8794 37.4782 19.6794 37.7582 19.3694C38.0582 19.0494 38.2082 18.6094 38.2082 18.1094C38.2082 17.1794 37.2382 14.2994 33.9982 12.4294Z " /><path id="路径 13" fill-rule="evenodd" style="fill:#000000" transform="translate(142.48409703504035 29.606900269541782)  rotate(0 19.050458221024243 27.808948787061993)" opacity="0.02" d="M11.72,28.36C24.53,34.16 26.93,36.24 26.93,39.74C26.93,42.26 24.64,45.33 18.83,45.33C14.34,45.33 11.5,43.46 9.96,41.5C8.76,39.85 7.12,39.19 5.58,39.19C2.74,39.19 0,41.5 0,44.45C0,48.06 5.58,55.62 18.94,55.62C29.89,55.62 38.1,48.06 38.1,39.52C38.1,34.16 34.93,28.58 27.37,24.52C24.09,22.77 19.16,20.58 16.31,19.16C13.8,17.96 12.7,15.98 12.7,14.34C12.7,11.93 14.78,9.85 18.5,9.85C22.33,9.85 24.31,11.39 25.4,12.48C26.82,14.01 28.47,14.67 29.89,14.67C32.85,14.67 35.36,12.15 35.36,9.2C35.36,4.93 28.58,0 18.5,0C7.99,0 1.86,7.23 1.86,14.67C1.86,20.04 4.93,25.4 11.72,28.36Z " /><path id="分组 6" fill-rule="evenodd" style="fill:#9C9C9C" transform="translate(141.891105121294 29.013908355795145)  rotate(0 19.64345013477074 28.40194070080862)" opacity="1" d="M1.86 15.26C1.86 18.29 2.8 21.32 4.78 23.95C6.45 26.16 8.85 28.09 12.07 29.49C18.3 32.32 22.06 34.25 24.26 35.89C26.34 37.46 26.93 38.72 26.93 40.34C26.93 41.69 26.16 43.21 24.41 44.21C23.21 44.89 21.57 45.33 19.42 45.33C17.59 45.33 16.04 45 14.75 44.48C13.08 43.8 11.86 42.79 11.03 41.73C10.41 40.89 9.69 40.29 8.93 39.88C8.04 39.41 7.09 39.19 6.18 39.19C4.61 39.19 3.07 39.83 1.92 40.87C0.76 41.92 0 43.39 0 45.04C0 47.13 1.7 50.48 5.57 53.08C8.71 55.18 13.29 56.8 19.53 56.8C24.77 56.8 29.39 55.12 32.84 52.44C36.86 49.33 39.29 44.87 39.29 40.12C39.29 36.97 38.25 33.76 35.93 30.8C34.16 28.53 31.63 26.41 28.25 24.59L28.24 24.59C27.25 24.07 26.12 23.5 24.93 22.93C22.18 21.59 19.16 20.22 17.17 19.22C17.17 19.22 17.17 19.22 17.16 19.22C16.16 18.74 15.4 18.13 14.87 17.47C14.2 16.65 13.89 15.75 13.89 14.93C13.89 13.77 14.46 12.7 15.52 11.98C16.4 11.39 17.61 11.04 19.1 11.04C20.53 11.04 21.68 11.26 22.63 11.6C24.03 12.1 24.94 12.87 25.56 13.48C26.26 14.23 27 14.78 27.75 15.16C28.68 15.64 29.62 15.86 30.48 15.86C32.12 15.86 33.64 15.16 34.75 14.05C35.85 12.95 36.55 11.43 36.55 9.79C36.55 7.45 34.71 4.87 31.4 2.96C28.38 1.21 24.14 0 19.1 0C14.14 0 10.12 1.57 7.22 3.99C3.75 6.9 1.86 11.05 1.86 15.26Z M19.096 9.85598C20.686 9.85598 21.976 10.106 23.026 10.486C24.656 11.066 25.706 11.946 26.416 12.656C26.416 12.656 26.426 12.666 26.426 12.676C27.016 13.306 27.646 13.786 28.286 14.106C29.036 14.486 29.786 14.666 30.486 14.666C31.796 14.666 33.016 14.106 33.906 13.216C34.796 12.326 35.366 11.106 35.366 9.78598C35.366 7.76598 33.656 5.63598 30.806 3.98598C27.936 2.32598 23.896 1.18598 19.096 1.18598C14.456 1.18598 10.696 2.63598 7.98598 4.89598C4.78598 7.57598 3.04598 11.386 3.04598 15.266C3.04598 18.046 3.90598 20.826 5.72598 23.236C7.28598 25.306 9.53598 27.096 12.546 28.406C12.546 28.406 12.546 28.406 12.556 28.406C18.906 31.286 22.726 33.266 24.966 34.946C27.476 36.826 28.116 38.386 28.116 40.336C28.116 41.766 27.476 43.356 25.976 44.566C24.596 45.696 22.466 46.516 19.426 46.516C17.416 46.516 15.716 46.156 14.306 45.576C12.406 44.806 11.016 43.646 10.086 42.456C10.086 42.446 10.076 42.446 10.076 42.436C9.57598 41.756 8.98598 41.256 8.36598 40.926C7.65598 40.546 6.90598 40.376 6.17598 40.376C4.89598 40.376 3.64598 40.896 2.71598 41.746C1.79598 42.576 1.18598 43.736 1.18598 45.046C1.18598 47.226 3.40598 50.856 8.22598 53.246C11.066 54.656 14.806 55.616 19.536 55.616C24.476 55.616 28.846 54.036 32.116 51.506C35.826 48.626 38.096 44.506 38.096 40.116C38.096 37.216 37.126 34.256 34.996 31.526C33.306 29.376 30.906 27.366 27.686 25.636C26.706 25.116 25.586 24.556 24.416 23.996C21.656 22.656 18.646 21.286 16.646 20.286C15.466 19.716 14.576 18.996 13.946 18.216C13.086 17.156 12.696 15.986 12.696 14.936C12.696 13.386 13.446 11.956 14.866 10.996C15.906 10.296 17.326 9.85598 19.096 9.85598Z " /><path id="分组 7" fill-rule="evenodd" style="fill:#000000" transform="translate(192.30016172506737 0.9203234501347749)  rotate(0 7.663827493261443 42.04312668463612)" opacity="0.02" d="M15.33 7.45C15.33 3.29 11.61 0 7.66 0C4.6 0 0 2.08 0 7.45C0 12.48 3.39 15.22 7.66 15.22C12.37 15.22 15.33 11.39 15.33 7.45Z M13.5787 34.593L13.5787 34.383C13.5787 30.873 10.6187 29.123 7.7687 29.123C4.48871 29.123 1.74871 31.093 1.85871 34.703C1.96871 37.663 1.96871 42.043 1.96871 46.973C1.96871 56.933 1.85871 69.413 1.85871 78.503C1.85871 82.223 4.7087 84.083 7.6687 84.083C10.6187 84.083 13.5787 82.223 13.5787 78.503L13.5787 78.283C13.4687 72.263 13.3587 64.483 13.3587 56.933C13.3587 47.733 13.4687 39.083 13.5787 34.593Z " /><path id="分组 8" fill-rule="evenodd" style="fill:#9C9C9C" transform="translate(191.70716981132068 0.3273315363881443)  rotate(0 8.256819407008074 42.63611859838275)" opacity="1" d="M1.85838 35.323C1.85838 35.323 1.85838 35.323 1.85838 35.323C1.90838 36.683 1.93838 38.333 1.95838 40.213C1.96838 42.413 1.96838 44.903 1.96838 47.563L1.85838 79.093C1.85838 81.073 2.59838 82.563 3.70838 83.593C4.90838 84.703 6.55838 85.273 8.25838 85.273C9.93839 85.273 11.6184 84.713 12.8484 83.613C13.9984 82.583 14.7584 81.073 14.7584 79.093L14.7584 78.863C14.7084 75.693 14.6484 72.043 14.6084 68.193C14.5684 64.733 14.5384 61.103 14.5384 57.523C14.5384 53.613 14.5684 49.803 14.5984 46.363C14.6384 41.733 14.6984 37.783 14.7584 35.203L14.7584 34.973C14.7584 33.073 13.9784 31.633 12.8084 30.653C11.5984 29.643 9.96838 29.123 8.36839 29.123C6.55838 29.123 4.89838 29.683 3.71838 30.733C2.52838 31.783 1.79838 33.323 1.85838 35.323Z M13.5749 79.099C13.5749 79.099 13.5749 78.879 13.5749 78.879C13.5149 75.709 13.4649 72.059 13.4149 68.209C13.3849 64.739 13.3549 61.109 13.3549 57.529C13.3549 53.609 13.3749 49.789 13.4049 46.349C13.4449 41.719 13.5149 37.769 13.5749 35.179L13.5749 34.969C13.5749 33.469 12.9649 32.339 12.0449 31.559C11.0449 30.719 9.69492 30.309 8.36492 30.309C6.86492 30.309 5.48492 30.749 4.50492 31.619C3.56492 32.459 2.99492 33.689 3.04492 35.279C3.09492 36.649 3.12492 38.319 3.14492 40.199C3.15492 42.399 3.15492 44.899 3.15492 47.559L3.04492 79.099C3.04492 80.679 3.61492 81.899 4.51492 82.729C5.49492 83.639 6.86492 84.089 8.25492 84.089C9.64492 84.089 11.0449 83.639 12.0549 82.729C12.9749 81.899 13.5749 80.689 13.5749 79.099Z M14.15 13.96C15.66 12.39 16.51 10.23 16.51 8.04C16.51 5.8 15.52 3.8 14 2.35C12.47 0.89 10.39 0 8.26 0C6.44 0 4.12 0.68 2.41 2.26C1.01 3.55 0 5.44 0 8.04C0 10.64 0.86 12.67 2.25 14.08C3.74 15.6 5.87 16.4 8.26 16.4C10.71 16.4 12.72 15.44 14.15 13.96Z M13.296 13.136C14.596 11.786 15.326 9.92598 15.326 8.03598C15.326 6.14598 14.476 4.44598 13.186 3.21598C11.866 1.95598 10.086 1.18598 8.25598 1.18598C6.69598 1.18598 4.69598 1.77598 3.21598 3.13598C2.02598 4.22598 1.18598 5.83598 1.18598 8.03598C1.18598 10.276 1.89598 12.036 3.08598 13.246C4.37598 14.556 6.20598 15.216 8.25598 15.216C10.356 15.216 12.076 14.396 13.296 13.136Z " /><path id="分组 9" fill-rule="evenodd" style="fill:#000000" transform="translate(219.1247439353101 29.60690026954177)  rotate(0 27.918059299191402 41.54857142857143)" opacity="0.02" d="M40.73 2.63C40.18 2.96 39.63 3.17 38.98 3.17C38.54 3.17 37.88 3.06 37.11 2.63C33.39 0.88 29.12 0 24.96 0L24.74 0C14.01 0 3.06 6.46 3.06 19.16C3.06 23.76 5.36 29.45 9.63 32.74C10.51 33.39 10.84 33.72 10.84 34.05C10.84 34.38 10.18 34.6 9.41 35.03C5.14 37.33 3.17 40.73 3.17 44.78C3.17 47.62 4.93 51.24 9.2 52.55C9.96 52.77 10.18 52.99 10.18 53.21C10.18 53.32 9.96 53.54 9.63 53.65C4.38 55.84 0 59.89 0 65.91C0 73.03 7.01 83.1 26.82 83.1C41.49 83.1 55.84 76.97 55.84 62.3C55.84 53.32 48.5 45.33 32.08 45.33C15.55 45.33 14.23 44.89 14.23 42.92C14.23 38.54 21.68 37.66 26.27 37.55C39.74 37.01 46.97 29.67 46.97 19.16C46.97 15.88 46.75 14.78 45.98 12.7C45.87 12.37 45.87 12.15 45.87 12.04C45.87 11.61 46.09 11.61 46.31 11.49C46.97 11.17 47.41 10.84 48.61 10.84C48.94 10.84 49.49 10.84 50.03 10.95C50.47 11.06 50.8 11.06 51.24 11.06C54.3 11.06 55.84 8.54 55.84 6.02C55.84 0.66 51.24 0.33 48.06 0.33C45.76 0.33 43.9 0.98 40.73 2.63Z M25.293 9.41434C18.833 9.41434 13.793 13.4643 13.793 19.0443C13.793 21.8943 15.103 28.4643 24.853 28.4643C31.313 28.4643 36.783 25.2943 36.783 18.9443C36.783 14.0143 33.503 9.41434 25.293 9.41434Z M26.9266 54.6312C12.4766 54.6312 10.9466 63.5012 10.9466 64.8112C10.9466 65.8012 11.2766 73.3512 27.0466 73.3512C30.1066 73.3512 44.3366 72.9212 44.3366 62.9512C44.3366 54.6312 35.2566 54.6312 26.9266 54.6312Z " /><path id="分组 10" fill-rule="evenodd" style="fill:#9C9C9C" transform="translate(218.5317520215633 29.013908355795145)  rotate(0 28.511051212938032 42.14156334231806)" opacity="1" d="M25.33 0C19.74 0 14.09 1.72 9.88 5.12C5.79 8.43 3.06 13.31 3.06 19.75C3.06 22.21 3.7 24.96 4.91 27.52C6.06 29.92 7.73 32.15 9.87 33.8L10.55 34.34C10.63 34.42 10.7 34.49 10.76 34.55L9.72 35.11C7.6 36.25 6.03 37.66 4.95 39.27C3.75 41.07 3.17 43.12 3.17 45.37C3.17 47.05 3.74 48.99 5.02 50.62C6.06 51.95 7.56 53.08 9.61 53.71L9.81 53.77C7.18 54.9 4.77 56.48 3.01 58.52C1.16 60.67 0 63.33 0 66.5C0 70.41 2.01 75.18 6.95 78.81C11.29 81.98 17.9 84.28 27.42 84.28C36.13 84.28 44.71 82.14 50.36 77.4C54.45 73.97 57.02 69.2 57.02 62.89C57.02 58.39 55.25 54.13 51.51 50.93C47.55 47.54 41.36 45.33 32.67 45.33C24.49 45.33 20.05 45.22 17.67 44.87C15.78 44.6 15.42 44.28 15.42 43.51C15.42 41.79 16.79 40.74 18.61 40.04C21.09 39.08 24.41 38.8 26.88 38.74C26.89 38.74 26.89 38.74 26.89 38.74C33.24 38.48 38.23 36.73 41.77 33.89C45.97 30.52 48.15 25.62 48.15 19.75C48.15 18.3 48.11 17.27 48 16.39C47.85 15.22 47.59 14.33 47.14 13.1L47.06 12.67C47.1 12.65 47.14 12.63 47.17 12.62C47.52 12.45 47.79 12.27 48.18 12.15C48.44 12.07 48.76 12.02 49.2 12.02C49.37 12.02 49.61 12.02 49.88 12.04L51.04 12.22C51.3 12.24 51.54 12.24 51.83 12.24C53.52 12.24 54.8 11.56 55.67 10.54C56.56 9.48 57.02 8.05 57.02 6.61C57.02 4.49 56.34 3.08 55.35 2.14C53.62 0.52 50.83 0.33 48.66 0.33C47.54 0.33 46.52 0.47 45.42 0.8C44.17 1.17 42.8 1.79 41.05 2.69C41.04 2.7 41.03 2.7 41.02 2.71C40.78 2.85 40.54 2.97 40.29 3.06C40.07 3.13 39.83 3.17 39.57 3.17C39.36 3.17 39.09 3.14 38.78 3.05C38.54 2.97 38.28 2.86 38 2.71C37.99 2.7 37.97 2.69 37.96 2.68C36.05 1.79 34 1.11 31.9 0.66C29.81 0.22 27.67 0 25.56 0L25.33 0Z M45.756 1.93598C44.566 2.29598 43.276 2.87598 41.616 3.73598C41.306 3.91598 40.996 4.07598 40.666 4.18598C40.326 4.29598 39.966 4.35598 39.566 4.35598C39.266 4.35598 38.876 4.31598 38.426 4.17598C38.126 4.08598 37.786 3.94598 37.436 3.74598C35.616 2.89598 33.656 2.25598 31.656 1.82598C29.646 1.39598 27.586 1.18598 25.556 1.18598L25.336 1.18598C20.006 1.18598 14.626 2.80598 10.626 6.04598C6.79598 9.14598 4.24598 13.716 4.24598 19.756C4.24598 22.046 4.84598 24.626 5.98598 27.016C7.05598 29.246 8.59598 31.326 10.586 32.856C11.106 33.246 11.446 33.526 11.646 33.766C11.936 34.096 12.026 34.376 12.026 34.646C12.026 34.906 11.906 35.166 11.616 35.396C11.356 35.606 10.856 35.826 10.306 36.146C10.296 36.146 10.296 36.146 10.286 36.146C8.35598 37.186 6.91598 38.456 5.93598 39.926C4.86598 41.526 4.35598 43.366 4.35598 45.376C4.35598 46.816 4.85598 48.486 5.95598 49.886C6.85598 51.046 8.17598 52.026 9.95598 52.576C10.456 52.716 10.766 52.876 10.956 53.016C11.286 53.276 11.366 53.546 11.366 53.796C11.366 53.946 11.306 54.186 11.076 54.406C10.936 54.546 10.716 54.696 10.436 54.796C7.91598 55.846 5.59598 57.346 3.90598 59.296C2.23598 61.236 1.18598 63.636 1.18598 66.506C1.18598 70.106 3.08598 74.496 7.65598 77.846C11.836 80.916 18.226 83.096 27.416 83.096C35.826 83.096 44.136 81.066 49.596 76.496C53.436 73.286 55.836 68.806 55.836 62.886C55.836 57.806 53.386 53.056 48.156 50.006C44.426 47.826 39.306 46.516 32.676 46.516C24.396 46.516 19.906 46.396 17.496 46.046C15.876 45.806 15.086 45.416 14.696 44.956C14.346 44.556 14.236 44.086 14.236 43.516C14.236 41.306 15.856 39.836 18.176 38.936C20.776 37.926 24.256 37.616 26.846 37.556C32.896 37.306 37.656 35.676 41.026 32.966C44.946 29.826 46.966 25.226 46.966 19.756C46.966 18.366 46.926 17.376 46.826 16.546C46.686 15.456 46.436 14.626 46.016 13.496L45.906 13.066C45.876 12.866 45.876 12.726 45.876 12.636C45.876 12.246 45.996 12.026 46.126 11.876C46.256 11.726 46.436 11.656 46.636 11.556C47.046 11.356 47.376 11.156 47.836 11.016C48.186 10.916 48.616 10.836 49.206 10.836C49.426 10.836 49.756 10.836 50.116 10.866L51.266 11.046C51.446 11.056 51.626 11.056 51.826 11.056C53.116 11.056 54.096 10.546 54.766 9.77598C55.486 8.92598 55.836 7.76598 55.836 6.61598C55.836 4.39598 54.986 3.13598 53.756 2.43598C52.246 1.57598 50.256 1.51598 48.656 1.51598C47.656 1.51598 46.746 1.64598 45.756 1.93598Z M40.7166 56.1412C37.2466 54.6512 32.2666 54.6312 27.5266 54.6312C21.5666 54.6312 17.7466 56.1112 15.2966 57.9612C11.5066 60.8112 10.9466 64.5712 10.9466 65.4112C10.9466 66.0912 11.0566 69.7112 15.6466 72.2012C18.0766 73.5312 21.8366 74.5412 27.6366 74.5412C29.6566 74.5412 36.4066 74.3412 40.9666 71.4912C43.5966 69.8412 45.5266 67.3412 45.5266 63.5412C45.5266 59.5912 43.6166 57.3712 40.7166 56.1412Z M40.2526 57.2271C36.9026 55.7971 32.0926 55.8171 27.5226 55.8171C23.1326 55.8171 19.9626 56.6471 17.6926 57.8471C12.8526 60.3871 12.1326 64.5571 12.1326 65.4071C12.1326 65.9871 12.2926 69.0271 16.2126 71.1571C18.5326 72.4171 22.1126 73.3571 27.6326 73.3571C29.5526 73.3571 35.9926 73.1971 40.3326 70.4871C42.6426 69.0471 44.3426 66.8671 44.3426 63.5471C44.3426 60.1671 42.7226 58.2871 40.2526 57.2271Z M34.223 11.7443C32.303 10.3243 29.573 9.41434 25.883 9.41434C22.683 9.41434 19.813 10.3743 17.683 11.9943C15.273 13.8243 13.793 16.5143 13.793 19.6443C13.793 21.5443 14.353 25.0043 17.323 27.3243C19.063 28.6743 21.633 29.6543 25.443 29.6543C28.693 29.6543 31.693 28.8643 33.943 27.3343C36.403 25.6343 37.973 23.0343 37.973 19.5343C37.973 16.5443 36.823 13.6643 34.223 11.7443Z M33.519 12.6903C31.759 11.3903 29.249 10.6003 25.879 10.6003C22.969 10.6003 20.349 11.4603 18.409 12.9403C16.289 14.5503 14.979 16.9003 14.979 19.6403C14.979 21.3103 15.449 24.3503 18.059 26.3803C19.639 27.6103 21.989 28.4703 25.449 28.4703C28.429 28.4703 31.199 27.7703 33.269 26.3503C35.419 24.8703 36.789 22.6003 36.789 19.5303C36.789 16.9103 35.799 14.3803 33.519 12.6903Z " /><path id="路径 31" fill-rule="evenodd" style="fill:#000000" transform="translate(285.8007547169809 30.043342318059295)  rotate(0 23.265444743935397 27.316765498652288)" opacity="0.02" d="M6.02,0.22C3.28,0.22 0.11,1.86 0.11,5.15L0.11,5.37C0.33,12.7 0.44,18.39 0.44,24.96C0.44,31.42 0.33,38.65 0,49.05L0,49.27C0,52.77 2.85,54.63 5.8,54.63C10.18,54.63 11.49,51.35 11.39,49.05C11.17,41.28 11.06,35.48 11.06,30.99C11.06,27.92 11.06,25.4 11.17,23.43C11.49,16.1 19.49,10.18 26.17,10.18C30.76,10.18 34.6,12.92 35.03,19.71C35.14,21.46 35.25,25.18 35.25,29.56C35.25,36.24 35.14,44.56 35.03,49.05L35.03,49.16C35.03,52.66 37.88,54.63 40.73,54.63C43.57,54.63 46.31,52.77 46.42,48.83C46.53,46.53 46.53,43.47 46.53,40.07C46.53,31.97 46.31,22.23 46.2,18.29C45.76,6.02 36.9,0 27.7,0C22,0 16.2,2.19 12.15,6.57C11.93,6.79 11.72,7.01 11.6,7.01C11.49,7.01 11.49,6.9 11.49,6.79L11.49,6.46C11.49,6.13 11.6,5.8 11.6,5.37C11.6,1.86 8.76,0.22 6.02,0.22Z " /><path id="分组 11" fill-rule="evenodd" style="fill:#9C9C9C" transform="translate(285.20776280323423 29.45035040431268)  rotate(0 23.858436657682027 27.909757412398918)" opacity="1" d="M35.25 30.15C35.25 33.23 35.23 36.66 35.2 39.89C35.15 43.68 35.09 47.21 35.03 49.63L35.63 50.24L35.03 49.65L35.63 50.35L35.03 49.75C35.03 51.63 35.77 53.1 36.89 54.14C38.07 55.23 39.7 55.82 41.32 55.82C43.01 55.82 44.67 55.22 45.85 53.99C46.87 52.94 47.55 51.44 47.61 49.45C47.66 48.41 47.68 47.23 47.7 45.93C47.72 44.32 47.72 42.55 47.72 40.67C47.72 37.14 47.67 33.3 47.62 29.76C47.55 25.17 47.45 21.09 47.39 18.86C47.39 18.86 47.39 18.86 47.39 18.86C47.18 12.94 45.05 8.44 41.89 5.32C38.3 1.77 33.34 0 28.29 0C25.34 0 22.37 0.57 19.6 1.72C17.08 2.77 14.73 4.29 12.76 6.29L12.79 5.96C12.79 4.08 12.05 2.68 10.94 1.73C9.77 0.72 8.18 0.22 6.61 0.22C5.11 0.22 3.48 0.68 2.24 1.6C0.98 2.53 0.11 3.91 0.11 5.74L0.11 5.98C0.22 9.53 0.3 12.7 0.35 15.77C0.41 19.03 0.44 22.18 0.44 25.56C0.44 29.18 0.4 33.05 0.31 37.59C0.24 41.13 0.14 45.07 0 49.62L0 49.86C0 51.77 0.76 53.23 1.92 54.24C3.11 55.28 4.73 55.82 6.39 55.82C8.48 55.82 9.94 55.12 10.91 54.15C12.19 52.86 12.64 51.07 12.57 49.62C12.46 45.49 12.37 41.91 12.32 38.8C12.27 36.06 12.24 33.67 12.24 31.58C12.24 29.91 12.24 28.4 12.26 27.05C12.27 25.94 12.3 24.94 12.35 24.06C12.35 24.05 12.35 24.05 12.35 24.05C12.51 20.57 14.48 17.44 17.19 15.16C19.97 12.82 23.52 11.37 26.76 11.37C29.13 11.37 31.29 12.14 32.81 13.92C34.05 15.37 34.85 17.48 35.04 20.34C35.09 21.21 35.14 22.57 35.19 24.26C35.23 25.95 35.25 27.97 35.25 30.15Z M28.296 1.18598C25.496 1.18598 22.676 1.72598 20.056 2.81598C17.496 3.87598 15.126 5.45598 13.186 7.56598C13.176 7.57598 13.166 7.57598 13.166 7.58598C12.986 7.76598 12.796 7.94598 12.666 8.03598C12.486 8.15598 12.316 8.19598 12.196 8.19598C11.946 8.19598 11.786 8.08598 11.676 7.95598C11.566 7.82598 11.496 7.61598 11.496 7.38598L11.496 7.05598L11.606 5.95598C11.606 4.47598 11.036 3.37598 10.176 2.62598C9.20598 1.79598 7.89598 1.40598 6.61598 1.40598C5.35598 1.40598 3.98598 1.78598 2.94598 2.55598C1.97598 3.26598 1.29598 4.32598 1.29598 5.73598L1.29598 5.94598C1.40598 9.50598 1.47598 12.676 1.53598 15.746C1.59598 19.016 1.62598 22.166 1.62598 25.556C1.62598 29.186 1.58598 33.066 1.49598 37.616C1.42598 41.156 1.32598 45.096 1.18598 49.656L1.18598 49.866C1.18598 51.376 1.77598 52.546 2.69598 53.346C3.67598 54.196 5.02598 54.636 6.39598 54.636C8.08598 54.636 9.27598 54.106 10.066 53.316C11.096 52.276 11.446 50.836 11.386 49.676C11.386 49.666 11.386 49.666 11.386 49.656C11.266 45.516 11.186 41.936 11.126 38.816C11.086 36.066 11.056 33.676 11.056 31.576C11.056 29.906 11.056 28.386 11.076 27.036C11.086 25.906 11.116 24.896 11.166 23.996C11.336 20.196 13.466 16.746 16.426 14.246C19.426 11.736 23.266 10.186 26.756 10.186C29.486 10.186 31.966 11.096 33.706 13.146C35.086 14.756 36.016 17.086 36.216 20.266C36.276 21.146 36.326 22.526 36.366 24.226C36.416 25.926 36.436 27.956 36.436 30.156C36.436 33.236 36.416 36.666 36.386 39.906C36.336 43.696 36.276 47.226 36.216 49.656C36.216 49.656 36.216 49.656 36.216 49.656C36.216 49.696 36.206 49.746 36.176 49.796L36.216 49.756C36.216 51.256 36.806 52.436 37.696 53.266C38.666 54.166 39.996 54.636 41.316 54.636C42.696 54.636 44.036 54.156 45.006 53.166C45.836 52.306 46.376 51.056 46.426 49.406C46.426 49.406 46.426 49.396 46.426 49.396C46.466 48.376 46.496 47.206 46.516 45.916C46.526 44.316 46.526 42.546 46.526 40.666C46.526 37.146 46.486 33.306 46.436 29.776C46.356 25.196 46.266 21.126 46.206 18.896C46.006 13.336 44.026 9.10598 41.066 6.16598C37.686 2.83598 33.036 1.18598 28.296 1.18598Z " /></g><g opacity="1" transform="translate(0 1.114824797843663)  rotate(0 256.257897574124 57.612722371967656)"><path id="分组 13" fill-rule="evenodd" style="fill:#4F4F4F" transform="translate(0 0)  rotate(0 30.164312668463616 43.91698113207546)" opacity="1" d="M41.54 40.18C40.29 40.07 39.84 39.84 39.84 39.73C39.84 39.5 40.52 39.28 41.65 39.05C49.58 37.92 55.24 29.54 55.24 20.94C55.24 11.43 48.22 1.47 29.43 0.23C27.73 0.11 25.35 0 22.86 0C13.24 0 0.68 0.23 0.34 14.37C0.11 21.62 0 37.01 0 50.82C0 59.99 0 68.48 0.23 73.23C0.68 87.38 13.7 87.83 24.68 87.83C27.51 87.83 30.45 87.72 31.92 87.61C51.5 86.47 60.33 73.46 60.33 61.35C60.33 50.82 53.77 41.09 41.54 40.18Z M22.4066 11.6582C15.1666 11.6582 12.9066 12.5582 12.5666 16.8682C12.3366 19.5782 12.4466 26.0282 12.3366 32.5982C12.3366 34.9782 13.9166 34.9782 21.3966 34.9782C24.1066 34.9782 27.0566 34.9782 29.0866 34.8582C37.2366 34.4082 42.4466 28.0682 42.4466 22.0682C42.4466 16.7482 38.2566 11.7682 28.2966 11.7682C28.2966 11.7682 25.3566 11.6582 22.4066 11.6582Z M47.3151 60.1068C47.3151 53.4268 42.7851 46.8568 32.3751 46.0668C29.5451 45.8368 26.5951 45.7268 23.7651 45.7268C13.2451 45.7268 12.2251 46.0668 12.2251 48.3268C12.2251 62.4768 12.2251 67.6868 12.5651 70.7368C13.1251 74.9268 14.2651 76.2868 24.7851 76.2868C27.3951 76.2868 30.2251 76.1768 32.3751 76.0668C41.7651 75.4968 47.3151 67.6868 47.3151 60.1068Z " /><path id="分组 14" fill-rule="evenodd" style="fill:#4F4F4F" transform="translate(73.34598382749327 0.339191374663083)  rotate(0 7.923557951482481 43.46393530997304)" opacity="1" d="M15.85 7.7C15.85 3.39 12 0 7.92 0C4.75 0 0 2.15 0 7.7C0 12.9 3.51 15.73 7.92 15.73C12.79 15.73 15.85 11.77 15.85 7.7Z M14.0303 35.7674L14.0303 35.5374C14.0303 31.9174 10.9803 30.1074 8.04035 30.1074C4.64035 30.1074 1.81035 32.1474 1.92035 35.8774C2.04035 38.9374 2.04035 43.4674 2.04035 48.5574C2.04035 58.8574 1.92035 71.7574 1.92035 81.1574C1.92035 85.0074 4.87035 86.9274 7.92035 86.9274C10.9803 86.9274 14.0303 85.0074 14.0303 81.1574L14.0303 80.9274C13.9203 74.7074 13.8103 66.6674 13.8103 58.8574C13.8103 49.3474 13.9203 40.4074 14.0303 35.7674Z " /><path id="路径 39" fill-rule="evenodd" style="fill:#4F4F4F" transform="translate(106.51083557951482 30.56043126684639)  rotate(0 16.242048517520217 28.183719676549863)" opacity="1" d="M11.54,25.01C11.88,17.88 19.36,12.34 26.03,11.66C30.45,11.21 32.48,8.26 32.48,5.43C32.48,2.6 30.45,0 26.94,0C23.09,0 16.98,1.92 12.45,6.9C12.22,7.24 12,7.36 12,7.36C11.88,7.36 11.88,7.24 11.88,7.02L11.88,6.57C11.88,6.22 12,5.88 12,5.43C12,1.81 9.05,0.11 6.22,0.11C3.39,0.11 0.11,1.81 0.11,5.21L0.11,5.43C0.34,13.02 0.45,18.9 0.45,25.69C0.45,32.37 0.34,39.84 0,50.59L0,50.82C0,54.44 2.94,56.37 6,56.37C10.53,56.37 11.88,52.97 11.77,50.59C11.54,42.56 11.43,36.9 11.43,32.48C11.43,29.43 11.43,27.05 11.54,25.01Z " /><path id="分组 15" fill-rule="evenodd" style="fill:#4F4F4F" transform="translate(145.899730458221 0.7922371967655231)  rotate(0 29.655525606469013 43.18048517520216)" opacity="1" d="M27.51 86.36C34.86 86.36 40.97 83.19 45.39 78.44C45.62 78.21 45.84 77.99 45.95 77.99C46.18 77.99 46.29 78.21 46.41 78.66C47.99 84.89 50.14 85.8 52.75 85.8C56.03 85.8 59.31 83.19 59.31 79.57C59.31 78.55 59.08 77.53 58.52 76.51C55.24 70.18 55.12 69.84 55.12 27.84C55.12 18.34 55.24 10.3 55.46 6.45L55.46 5.88C55.46 1.92 52.52 0 49.58 0C46.29 0 43.69 2.38 43.8 5.88C43.92 10.64 44.14 22.19 44.14 35.31C44.14 35.65 44.03 35.77 43.8 35.77C43.69 35.77 43.46 35.77 43.35 35.65C39.16 31.92 33.84 29.54 27.51 29.54C11.88 29.54 0 41.43 0 57.95C0 75.04 11.88 86.36 27.51 86.36Z M44.0329 57.9519C44.0329 46.7419 36.7829 39.8419 27.7329 39.8419C18.6729 39.8419 11.4329 46.7419 11.4329 57.9519C11.4329 69.0419 18.6729 75.8319 27.7329 75.8319C36.7829 75.8319 44.0329 69.0419 44.0329 57.9519Z " /><path id="分组 16" fill-rule="evenodd" style="fill:#4F4F4F" transform="translate(220.1518059299192 30.332722371967655)  rotate(0 27.730673854447446 42.44636118598383)" opacity="1" d="M0 79.01C0 82.86 2.94 84.89 6 84.89C9.51 84.89 11.88 82.52 11.77 79.01C11.66 74.37 11.43 63.61 11.43 51.16C11.43 50.71 11.54 50.48 11.77 50.48C11.88 50.48 12.11 50.71 12.34 50.82C16.53 54.44 21.84 56.82 28.07 56.82C43.69 56.82 55.46 44.94 55.46 28.41C55.46 11.32 43.69 0 28.07 0C21.84 0 16.53 2.27 12.34 5.89C12.22 6 12.11 6 12 6C11.88 6 11.77 5.89 11.66 5.66C11.21 2.27 8.6 0.45 6 0.45C3.06 0.45 0.11 2.6 0.11 6.79C0.11 17.55 0.34 38.82 0.34 55.92C0.34 65.88 0.34 74.37 0 78.44L0 79.01Z M44.1444 28.4068C44.1444 17.3168 36.8944 10.5268 27.8444 10.5268C18.7844 10.5268 11.5444 17.3168 11.5444 28.4068C11.5444 39.6168 18.7844 46.5168 27.8444 46.5168C36.8944 46.5168 44.1444 39.6168 44.1444 28.4068Z " /><path id="分组 17" fill-rule="evenodd" style="fill:#4F4F4F" transform="translate(286.2538005390836 29.882048517520232)  rotate(0 25.750080862533693 28.862102425876007)" opacity="1" d="M0 39.95C0 48.67 7.36 57.72 19.81 57.72C26.49 57.72 33.62 55.35 37.47 50.93C37.69 50.71 37.92 50.59 38.14 50.59C38.26 50.59 38.48 50.71 38.6 50.93C39.61 52.63 40.63 53.88 41.65 54.67C43.01 55.8 44.48 56.37 45.73 56.37C49.01 56.37 51.5 52.75 51.5 49.57C51.5 47.99 50.93 46.52 49.69 45.61C48.78 44.93 44.6 44.6 43.58 35.54C43.46 34.86 43.46 33.95 43.46 32.94C43.46 29.54 43.8 25.24 44.03 23.54C44.14 21.96 44.26 20.6 44.26 19.13C44.26 6.11 37.47 0 25.01 0C13.58 0 3.62 6 3.62 11.43C3.62 14.37 6.11 16.64 9.05 16.64C10.41 16.64 12 16.07 13.24 14.6C15.39 12.22 19.24 9.85 24.33 9.85C32.03 9.85 32.37 15.62 32.37 16.98C32.37 19.35 31.47 20.71 30.33 20.83C28.52 20.94 18.79 23.09 10.98 25.8C3.39 28.41 0 34.18 0 39.95Z M31.2375 30.3327C12.1075 32.7127 10.9775 37.4627 10.9775 40.1827C10.9775 43.6927 14.0375 47.1927 19.8075 47.1927C28.9775 47.1927 32.9375 42.5627 32.9375 34.5227C32.9375 32.8227 32.7075 30.3327 31.3575 30.3327L31.2375 30.3327Z " /><path id="分组 18" fill-rule="evenodd" style="fill:#4F4F4F" transform="translate(348.8452830188679 30.332722371967655)  rotate(0 27.73185983827495 42.44636118598383)" opacity="1" d="M6 84.89C9.51 84.89 11.89 82.52 11.77 79.01C11.66 74.37 11.43 63.61 11.43 51.16C11.43 50.71 11.55 50.48 11.77 50.48C11.89 50.48 12.11 50.71 12.34 50.82C16.53 54.44 21.85 56.82 28.07 56.82C43.69 56.82 55.46 44.94 55.46 28.41C55.46 11.32 43.69 0 28.07 0C21.85 0 16.53 2.27 12.34 5.89C12.23 6 12.11 6 12 6C11.89 6 11.77 5.89 11.66 5.66C11.21 2.27 8.6 0.45 6 0.45C3.06 0.45 0.11 2.6 0.11 6.79C0.11 17.55 0.34 38.82 0.34 55.92C0.34 65.88 0.34 74.37 0 78.44L0 79.01C0 82.86 2.94 84.89 6 84.89Z M44.1467 28.4068C44.1467 17.3168 36.8967 10.5268 27.8467 10.5268C18.7867 10.5268 11.5467 17.3168 11.5467 28.4068C11.5467 39.6168 18.7867 46.5168 27.8467 46.5168C36.8967 46.5168 44.1467 39.6168 44.1467 28.4068Z " /><path id="分组 19" fill-rule="evenodd" style="fill:#4F4F4F" transform="translate(414.49423180593 29.882048517520236)  rotate(0 25.863935309973037 28.86210242587601)" opacity="1" d="M11.77 32.14C11.77 30.9 12 29.99 12.68 29.99C34.64 29.99 37.01 29.99 40.52 29.88C47.77 29.65 51.27 25.35 51.27 20.03C51.27 11.43 42.45 0 26.83 0C12.23 0 0 11.88 0 29.2C0 46.07 11.55 57.72 27.05 57.72C38.49 57.72 44.6 53.99 50.03 48.33C51.27 47.09 51.73 45.73 51.73 44.37C51.73 41.2 48.78 38.48 45.73 38.48C44.37 38.48 43.01 39.05 41.88 40.29C38.6 43.8 34.3 47.2 27.17 47.2C19.13 47.2 11.89 41.54 11.77 32.14Z M39.502 18.106C39.502 16.526 37.122 9.84604 26.942 9.84604C17.772 9.84604 12.792 17.766 12.792 19.696C12.792 20.716 13.922 20.716 24.452 20.716C29.092 20.716 34.182 20.716 37.242 20.596C38.602 20.486 39.502 19.466 39.502 18.106Z " /><path id="路径 50" fill-rule="evenodd" style="fill:#4F4F4F" transform="translate(480.0316981132076 30.56043126684639)  rotate(0 16.24204851752021 28.183719676549863)" opacity="1" d="M0,50.59L0,50.82C0,54.44 2.94,56.37 6,56.37C10.53,56.37 11.88,52.97 11.77,50.59C11.54,42.56 11.43,36.9 11.43,32.48C11.43,29.43 11.43,27.05 11.54,25.01C11.88,17.88 19.36,12.34 26.03,11.66C30.45,11.21 32.48,8.26 32.48,5.43C32.48,2.6 30.45,0 26.94,0C23.09,0 16.98,1.92 12.45,6.9C12.22,7.24 12,7.36 12,7.36C11.88,7.36 11.88,7.24 11.88,7.02L11.88,6.57C11.88,6.22 12,5.88 12,5.43C12,1.81 9.05,0.11 6.22,0.11C3.39,0.11 0.11,1.81 0.11,5.21L0.11,5.43C0.34,13.02 0.45,18.9 0.45,25.69C0.45,32.37 0.34,39.84 0,50.59Z " /></g></g></g></svg>