<?xml version="1.0" encoding="UTF-8" standalone="no"?><!DOCTYPE svg PUBLIC "-//W3C//DTD SVG 1.1//EN" "http://www.w3.org/Graphics/SVG/1.1/DTD/svg11.dtd"><svg width="100%" height="100%" viewBox="0 0 1606 304" version="1.1" xmlns="http://www.w3.org/2000/svg" xmlns:xlink="http://www.w3.org/1999/xlink" xml:space="preserve" xmlns:serif="http://www.serif.com/" style="fill-rule:evenodd;clip-rule:evenodd;stroke-linejoin:round;stroke-miterlimit:2;"><g id="原始字体-曲线"><g><path d="M1089.59,133.439c-0,-40.003 -24.425,-70.967 -68.852,-73.852c-2.885,-0.192 -8.655,-0.385 -14.617,-0.385c-23.848,0 -42.888,0.77 -44.426,27.118c-0.577,10.385 -1.154,32.695 -1.154,53.851c-0,16.155 0.384,31.733 0.961,41.157c1.924,26.925 29.234,27.118 44.619,27.118c20.002,-0 83.469,-0.193 83.469,-75.007Zm-70.775,-53.273c29.425,-0 48.081,22.309 48.081,53.273c-0,54.428 -40.581,54.428 -60.775,54.428c-15.962,-0 -21.924,-1.539 -22.886,-10.386c-0.769,-7.308 -1.154,-21.54 -1.154,-36.733c-0,-20.771 0.577,-42.889 1.154,-50.966c0.577,-9.616 10.962,-9.809 20.194,-9.809c7.116,0 15.386,0.193 15.386,0.193Z" style="fill-opacity:0.02;fill-rule:nonzero;"/><path d="M1090.63,133.439c-0,-20.746 -6.5,-39.086 -18.859,-52.452c-11.805,-12.766 -28.962,-21.011 -50.967,-22.44c-1.664,-0.11 -4.284,-0.222 -7.348,-0.296c-2.271,-0.055 -4.786,-0.09 -7.337,-0.09c-14.477,-0 -27.198,0.364 -35.453,6.279c-5.7,4.084 -9.368,10.774 -10.013,21.819c-0,0.001 -0,0.002 -0,0.003c-0.329,5.921 -0.658,15.712 -0.881,26.956c-0.168,8.501 -0.275,17.834 -0.275,26.953c0,8.699 0.111,17.232 0.304,24.728c0.166,6.447 0.392,12.128 0.66,16.493c-0,0.003 0,0.007 0,0.01c0.734,10.268 5.047,16.782 10.969,20.931c10.008,7.012 24.774,7.154 34.689,7.154c12.315,0 40.907,-0.123 61.402,-17.252c13.207,-11.038 23.109,-29.116 23.109,-58.796Zm-2.084,0c0,28.852 -9.522,46.467 -22.361,57.197c-20.04,16.749 -48.025,16.768 -60.066,16.768c-9.566,-0 -23.838,-0.012 -33.493,-6.777c-5.474,-3.835 -9.407,-9.881 -10.086,-19.369c-0.266,-4.344 -0.491,-9.997 -0.656,-16.412c-0.192,-7.481 -0.304,-15.995 -0.304,-24.675c0,-9.105 0.107,-18.424 0.275,-26.912c0.222,-11.212 0.55,-20.975 0.878,-26.88c0.597,-10.221 3.872,-16.466 9.147,-20.246c7.965,-5.707 20.27,-5.889 34.239,-5.889c2.533,-0 5.031,0.035 7.286,0.09c3.028,0.073 5.617,0.183 7.262,0.292c0,0 0.001,0 0.002,0c21.395,1.39 38.095,9.363 49.572,21.775c12.022,13.002 18.305,30.857 18.305,51.038Zm-69.731,-54.315c-0,-0 -15.388,-0.192 -15.388,-0.192c-5.419,-0 -11.219,0.103 -15.319,1.993c-3.338,1.539 -5.637,4.194 -5.914,8.788c-0.286,3.999 -0.572,11.423 -0.788,20.421c-0.221,9.218 -0.369,20.088 -0.369,30.614c0,7.901 0.104,15.542 0.312,22.088c0.193,6.083 0.476,11.223 0.848,14.754c0,0.002 0,0.003 0,0.004c0.546,5.022 2.587,7.883 6.809,9.501c3.688,1.414 9.196,1.814 17.113,1.814c12.203,-0 31.719,-0.069 45.536,-11.718c9.435,-7.954 16.28,-21.294 16.28,-43.752c0,-15.361 -4.531,-28.623 -12.622,-38.192c-8.549,-10.111 -21.073,-16.123 -36.498,-16.123Zm-15.388,1.891l15.386,0.192c14.748,0 26.735,5.718 34.909,15.385c7.803,9.228 12.13,22.033 12.13,36.847c0,21.615 -6.459,34.504 -15.54,42.159c-13.399,11.296 -32.359,11.227 -44.193,11.227c-7.569,0 -12.841,-0.324 -16.368,-1.675c-3.437,-1.318 -5.038,-3.691 -5.482,-7.779c-0.368,-3.496 -0.647,-8.582 -0.838,-14.601c-0.207,-6.526 -0.31,-14.145 -0.31,-22.022c-0,-10.508 0.147,-21.361 0.368,-30.564c0.215,-8.958 0.499,-16.35 0.783,-20.328c0,-0.004 0,-0.008 0.001,-0.012c0.22,-3.669 2.042,-5.798 4.707,-7.027c3.864,-1.781 9.34,-1.802 14.447,-1.802Z" style="fill:#9c9c9c;"/><path d="M1193.63,192.098c2.116,-2.116 2.885,-4.423 2.885,-6.731c-0,-5.385 -5,-10.001 -10.193,-10.001c-2.308,-0 -4.616,0.961 -6.539,3.077c-5.578,5.962 -12.886,11.732 -25.002,11.732c-13.655,-0 -25.964,-9.616 -26.156,-25.579c-0,-2.116 0.384,-3.654 1.538,-3.654c37.311,-0 41.35,-0 47.312,-0.193c12.309,-0.384 18.271,-7.693 18.271,-16.732c-0,-14.617 -15.002,-34.041 -41.542,-34.041c-24.81,-0 -45.581,20.194 -45.581,49.619c0,28.657 19.617,48.466 45.965,48.466c19.425,-0 29.811,-6.347 39.042,-15.963Zm-21.732,-47.119c-5.193,0.192 -13.848,0.192 -21.733,0.192c-17.886,-0 -19.809,-0 -19.809,-1.731c-0,-3.269 8.462,-16.732 24.04,-16.732c17.309,-0 21.348,11.347 21.348,14.04c0,2.307 -1.539,4.038 -3.846,4.231Z" style="fill-opacity:0.02;fill-rule:nonzero;"/><path d="M1194.38,192.826c1.085,-1.087 1.845,-2.222 2.351,-3.38c0.585,-1.338 0.831,-2.709 0.831,-4.079c-0,-2.965 -1.357,-5.726 -3.442,-7.744c-2.095,-2.029 -4.92,-3.299 -7.793,-3.299c-1.372,0 -2.744,0.301 -4.052,0.936c-1.148,0.558 -2.248,1.373 -3.252,2.475c-2.966,3.171 -6.429,6.292 -10.89,8.464c-3.678,1.792 -8.035,2.934 -13.347,2.934c-6.763,0 -13.186,-2.446 -17.845,-6.926c-4.372,-4.204 -7.179,-10.198 -7.27,-17.618c0.001,-0.577 0.031,-1.107 0.104,-1.565c0.047,-0.293 0.109,-0.552 0.2,-0.767c0.055,-0.131 0.07,-0.274 0.193,-0.274c21.227,0 31.686,0 37.857,-0.035c4.691,-0.027 6.91,-0.074 9.489,-0.158c5.905,-0.184 10.411,-1.915 13.573,-4.615c3.812,-3.254 5.705,-7.93 5.705,-13.158c0,-8.559 -4.945,-18.736 -14.261,-25.922c-7.041,-5.431 -16.575,-9.161 -28.322,-9.161c-13.281,0 -25.431,5.653 -34,15.356c-7.789,8.818 -12.623,20.988 -12.623,35.305c0,14.261 4.777,26.37 12.772,35.041c8.422,9.134 20.422,14.467 34.235,14.467c8.854,-0 15.861,-1.304 21.746,-3.614c7.273,-2.854 12.84,-7.246 18.041,-12.663Zm-1.481,-1.465c-0.005,0.005 -0.01,0.01 -0.015,0.016c-4.993,5.2 -10.324,9.433 -17.307,12.173c-5.677,2.228 -12.441,3.469 -20.984,3.469c-13.191,0 -24.66,-5.072 -32.703,-13.795c-7.671,-8.319 -12.22,-19.947 -12.22,-33.629c-0,-13.754 4.618,-25.454 12.1,-33.926c8.176,-9.257 19.768,-14.652 32.439,-14.652c11.216,0 20.327,3.542 27.05,8.728c8.737,6.74 13.45,16.244 13.45,24.272c0,4.592 -1.626,8.716 -4.974,11.574c-2.859,2.44 -6.949,3.95 -12.288,4.117c0,0 -0,0 -0.001,0c-2.563,0.083 -4.77,0.13 -9.433,0.157c-6.169,0.035 -16.625,0.035 -37.845,0.035c-0.853,-0 -1.504,0.414 -1.948,1.209c-0.424,0.758 -0.632,1.996 -0.632,3.487c0,0.004 0,0.008 0,0.012c0.097,8.049 3.167,14.541 7.909,19.101c5.037,4.844 11.976,7.507 19.289,7.507c5.676,0 10.33,-1.23 14.259,-3.144c4.708,-2.292 8.374,-5.572 11.504,-8.917c0.003,-0.004 0.006,-0.008 0.01,-0.011c0.811,-0.893 1.697,-1.559 2.626,-2.01c1.014,-0.492 2.078,-0.727 3.142,-0.727c2.342,0 4.636,1.059 6.344,2.712c1.685,1.632 2.807,3.851 2.807,6.248c0,1.09 -0.191,2.181 -0.656,3.245c-0.412,0.943 -1.038,1.864 -1.923,2.749Zm-20.958,-45.341c0.016,-0.001 0.032,-0.002 0.048,-0.003c1.442,-0.12 2.637,-0.733 3.477,-1.665c0.835,-0.925 1.325,-2.173 1.325,-3.604c-0,-1.913 -1.804,-7.946 -8.442,-11.787c-3.305,-1.912 -7.826,-3.295 -13.948,-3.295c-6.215,0 -11.342,2.059 -15.3,4.791c-6.498,4.484 -9.782,10.842 -9.782,12.983c-0,1.042 0.277,1.849 2.165,2.282c2.048,0.47 7.005,0.491 18.686,0.491c4.352,-0 8.939,-0 13.049,-0.033c3.35,-0.026 6.386,-0.074 8.722,-0.16Zm-0.103,-2.081c-2.317,0.085 -5.321,0.132 -8.636,0.158c-4.105,0.032 -8.685,0.032 -13.032,0.032c-6.875,0 -11.386,0.001 -14.334,-0.098c-2.04,-0.068 -3.291,-0.174 -4.045,-0.379c-0.249,-0.068 -0.389,-0.06 -0.389,-0.212c0,-1.89 3.147,-7.31 8.882,-11.268c3.653,-2.521 8.382,-4.422 14.117,-4.422c5.661,-0 9.848,1.246 12.905,3.015c5.69,3.292 7.401,8.343 7.401,9.983c0,0.874 -0.278,1.644 -0.788,2.209c-0.499,0.554 -1.216,0.902 -2.07,0.981l-0.011,0.001Z" style="fill:#9c9c9c;"/><path d="M1276.72,179.597c-0,-9.424 -5.577,-19.232 -18.848,-26.348c-5.769,-3.078 -14.424,-6.924 -19.424,-9.424c-4.424,-2.116 -6.347,-5.578 -6.347,-8.463c-0,-4.231 3.654,-7.885 10.193,-7.885c6.731,0 10.193,2.693 12.116,4.616c2.501,2.693 5.385,3.846 7.886,3.846c5.192,0 9.616,-4.423 9.616,-9.616c-0,-7.5 -11.924,-16.155 -29.618,-16.155c-18.463,0 -29.233,12.693 -29.233,25.771c-0,9.424 5.385,18.848 17.309,24.041c22.502,10.193 26.733,13.847 26.733,20.002c-0,4.423 -4.039,9.808 -14.232,9.808c-7.885,0 -12.886,-3.269 -15.578,-6.731c-2.116,-2.885 -5.001,-4.039 -7.693,-4.039c-5.001,-0 -9.809,4.039 -9.809,9.232c0,6.346 9.809,19.617 33.272,19.617c19.233,-0 33.657,-13.271 33.657,-28.272Z" style="fill-opacity:0.02;fill-rule:nonzero;"/><path d="M1277.76,179.597c-0,-5.519 -1.83,-11.169 -5.899,-16.371c-3.115,-3.981 -7.55,-7.706 -13.498,-10.895c-0.001,-0.001 -0.002,-0.001 -0.003,-0.002c-1.738,-0.927 -3.737,-1.924 -5.82,-2.933c-4.837,-2.343 -10.129,-4.753 -13.629,-6.503c-0.005,-0.003 -0.011,-0.005 -0.016,-0.008c-1.759,-0.841 -3.092,-1.909 -4.032,-3.071c-1.168,-1.444 -1.722,-3.026 -1.722,-4.452c-0,-2.044 1.007,-3.925 2.877,-5.184c1.547,-1.041 3.661,-1.659 6.274,-1.659c2.515,-0 4.549,0.392 6.2,0.985c2.471,0.888 4.073,2.222 5.156,3.302c1.228,1.318 2.53,2.285 3.839,2.957c1.636,0.839 3.286,1.218 4.807,1.218c2.878,0 5.546,-1.22 7.492,-3.166c1.945,-1.945 3.166,-4.613 3.166,-7.492c-0,-4.119 -3.24,-8.645 -9.054,-12.003c-5.301,-3.062 -12.746,-5.194 -21.606,-5.194c-8.712,0 -15.761,2.752 -20.856,7.011c-6.111,5.11 -9.419,12.399 -9.419,19.802c0,5.324 1.647,10.647 5.133,15.269c2.924,3.876 7.147,7.263 12.795,9.724c10.958,4.964 17.547,8.352 21.408,11.249c3.657,2.744 4.706,4.962 4.706,7.801c0,2.384 -1.363,5.057 -4.434,6.806c-2.106,1.2 -4.988,1.96 -8.756,1.96c-3.226,0 -5.946,-0.568 -8.204,-1.483c-2.945,-1.194 -5.092,-2.976 -6.535,-4.824c-1.093,-1.486 -2.362,-2.546 -3.705,-3.262c-1.561,-0.833 -3.225,-1.201 -4.827,-1.201c-2.757,0 -5.462,1.109 -7.477,2.937c-2.042,1.853 -3.373,4.436 -3.373,7.337c-0,3.659 2.977,9.558 9.785,14.116c5.517,3.693 13.565,6.542 24.528,6.542c9.191,0 17.311,-2.956 23.374,-7.66c7.054,-5.473 11.325,-13.311 11.325,-21.653Zm-2.084,-0c0,7.716 -3.993,14.945 -10.519,20.007c-5.729,4.446 -13.409,7.223 -22.096,7.223c-8.314,-0 -14.876,-1.695 -19.86,-4.164c-8.48,-4.202 -12.37,-10.585 -12.37,-14.411c-0,-2.295 1.075,-4.329 2.69,-5.794c1.638,-1.487 3.835,-2.396 6.077,-2.396c1.277,-0 2.602,0.292 3.846,0.955c1.095,0.584 2.124,1.454 3.007,2.658c0.006,0.008 0.012,0.016 0.018,0.023c1.634,2.101 4.065,4.14 7.413,5.498c2.474,1.003 5.453,1.636 8.987,1.636c5.348,-0 9.088,-1.435 11.516,-3.414c2.622,-2.137 3.758,-4.93 3.758,-7.436c-0,-3.418 -1.137,-6.164 -5.539,-9.467c-3.935,-2.952 -10.639,-6.425 -21.806,-11.484c-0.005,-0.002 -0.009,-0.004 -0.014,-0.006c-5.279,-2.299 -9.238,-5.449 -11.97,-9.072c-3.2,-4.242 -4.714,-9.128 -4.714,-14.014c0,-6.808 3.053,-13.505 8.673,-18.203c4.765,-3.984 11.369,-6.526 19.519,-6.526c8.43,-0 15.52,2 20.564,4.914c5.015,2.897 8.012,6.646 8.012,10.199c0,2.314 -0.991,4.455 -2.555,6.019c-1.565,1.564 -3.705,2.556 -6.019,2.556c-1.221,-0 -2.543,-0.315 -3.856,-0.989c-1.118,-0.574 -2.227,-1.406 -3.266,-2.525c-0.009,-0.009 -0.018,-0.019 -0.027,-0.028c-1.244,-1.243 -3.091,-2.786 -5.949,-3.813c-1.839,-0.66 -4.103,-1.107 -6.904,-1.107c-3.102,-0 -5.601,0.777 -7.438,2.014c-2.487,1.675 -3.797,4.193 -3.797,6.912c0,1.841 0.679,3.897 2.186,5.762c1.109,1.37 2.671,2.643 4.744,3.636c3.506,1.753 8.803,4.165 13.645,6.511c2.056,0.996 4.03,1.98 5.747,2.896c5.654,3.032 9.881,6.559 12.841,10.343c3.752,4.796 5.456,9.998 5.456,15.087Z" style="fill:#9c9c9c;"/><path d="M1310.76,86.512c8.27,0 13.463,-6.731 13.463,-13.655c-0,-7.308 -6.539,-13.078 -13.463,-13.078c-5.385,0 -13.462,3.654 -13.462,13.078c-0,8.847 5.962,13.655 13.462,13.655Zm10.386,111.163l-0,-0.384c-0.193,-10.578 -0.385,-24.233 -0.385,-37.503c0,-16.156 0.192,-31.349 0.385,-39.234l-0,-0.385c-0,-6.154 -5.193,-9.232 -10.193,-9.232c-5.77,0 -10.578,3.462 -10.386,9.809c0.192,5.193 0.192,12.886 0.192,21.54c0,17.502 -0.192,39.427 -0.192,55.389c0,6.539 5.001,9.809 10.193,9.809c5.193,-0 10.386,-3.27 10.386,-9.809Z" style="fill-opacity:0.02;fill-rule:nonzero;"/><path d="M1322.18,197.675l0,-0.403c-0.101,-5.564 -0.202,-11.98 -0.275,-18.743c-0.066,-6.088 -0.109,-12.458 -0.109,-18.741c-0,-6.874 0.035,-13.573 0.089,-19.609c0.074,-8.141 0.185,-15.075 0.295,-19.6l0,-0.41c0,-3.341 -1.379,-5.866 -3.427,-7.585c-2.124,-1.784 -4.991,-2.688 -7.807,-2.688c-3.18,-0 -6.084,0.983 -8.164,2.825c-2.085,1.846 -3.369,4.552 -3.263,8.056c0,0.003 0,0.005 0,0.007c0.088,2.383 0.136,5.295 0.162,8.585c0.03,3.865 0.03,8.251 0.03,12.917l-0.193,55.389c0,3.467 1.288,6.097 3.242,7.905c2.109,1.953 5.02,2.946 7.993,2.946c2.957,-0 5.909,-0.983 8.067,-2.919c2.017,-1.811 3.36,-4.45 3.36,-7.932Zm-2.083,0c0,2.796 -1.049,4.928 -2.669,6.381c-1.783,1.6 -4.231,2.386 -6.675,2.386c-2.443,0 -4.845,-0.786 -6.578,-2.391c-1.572,-1.455 -2.573,-3.586 -2.573,-6.376l0.192,-55.389c0,-4.672 0,-9.063 -0.03,-12.933c-0.026,-3.311 -0.074,-6.242 -0.163,-8.641c-0.084,-2.791 0.902,-4.961 2.562,-6.431c1.724,-1.527 4.147,-2.302 6.783,-2.302c2.33,0 4.71,0.725 6.468,2.2c1.615,1.356 2.683,3.356 2.683,5.99l0,0.372c-0.11,4.533 -0.221,11.472 -0.295,19.619c-0.055,6.042 -0.09,12.748 -0.09,19.628c0,6.291 0.044,12.668 0.11,18.763c0.073,6.765 0.174,13.183 0.275,18.749c0,0 0,0.375 0,0.375Zm-9.344,-110.121c4.31,-0 7.842,-1.702 10.344,-4.296c2.668,-2.766 4.161,-6.555 4.161,-10.401c-0,-3.925 -1.736,-7.443 -4.409,-9.987c-2.697,-2.566 -6.345,-4.132 -10.096,-4.132c-3.19,-0 -7.258,1.196 -10.267,3.966c-2.464,2.268 -4.237,5.58 -4.237,10.153c-0,4.574 1.509,8.134 3.944,10.607c2.633,2.674 6.369,4.09 10.56,4.09Zm0,-2.083c-3.595,-0 -6.817,-1.175 -9.075,-3.468c-2.096,-2.129 -3.346,-5.21 -3.346,-9.146c0,-3.877 1.476,-6.697 3.565,-8.621c2.595,-2.388 6.105,-3.415 8.856,-3.415c3.219,-0 6.346,1.356 8.66,3.558c2.271,2.161 3.761,5.144 3.761,8.478c0,3.31 -1.28,6.574 -3.576,8.954c-2.138,2.218 -5.162,3.66 -8.845,3.66Z" style="fill:#9c9c9c;"/><path d="M1390.57,176.135c23.655,-0.961 36.349,-13.847 36.349,-32.31c-0,-5.77 -0.385,-7.693 -1.731,-11.347c-0.192,-0.577 -0.192,-0.962 -0.192,-1.154c-0,-0.77 0.384,-0.77 0.769,-0.962c1.154,-0.577 1.923,-1.154 4.039,-1.154c0.577,0 1.538,0 2.5,0.192c0.769,0.193 1.346,0.193 2.115,0.193c5.386,-0 8.078,-4.424 8.078,-8.847c0,-9.424 -8.078,-10.001 -13.655,-10.001c-4.039,0 -7.308,1.154 -12.886,4.039c-0.961,0.577 -1.923,0.961 -3.077,0.961c-0.769,0 -1.923,-0.192 -3.269,-0.961c-6.539,-3.077 -14.04,-4.616 -21.348,-4.616l-0.385,0c-18.848,0 -38.08,11.347 -38.08,33.657c0,8.077 4.039,18.078 11.539,23.848c1.539,1.154 2.116,1.731 2.116,2.308c0,0.577 -1.154,0.961 -2.5,1.731c-7.501,4.038 -10.963,10.001 -10.963,17.116c0,5.001 3.078,11.348 10.578,13.655c1.346,0.385 1.731,0.77 1.731,1.154c0,0.193 -0.385,0.577 -0.962,0.77c-9.231,3.846 -16.924,10.962 -16.924,21.54c-0,12.501 12.309,30.195 47.119,30.195c25.772,-0 50.966,-10.77 50.966,-36.542c0,-15.77 -12.886,-29.81 -41.734,-29.81c-29.041,0 -31.349,-0.769 -31.349,-4.231c0,-7.693 13.078,-9.232 21.156,-9.424Zm18.463,-32.695c-0,11.155 -9.616,16.732 -20.964,16.732c-17.116,0 -19.424,-11.539 -19.424,-16.54c-0,-9.808 8.847,-16.924 20.194,-16.924c14.424,-0 20.194,8.078 20.194,16.732Zm13.27,77.314c0,17.502 -25.002,18.271 -30.387,18.271c-27.695,-0 -28.272,-13.27 -28.272,-15.001c0,-2.308 2.693,-17.886 28.08,-17.886c14.616,-0 30.579,-0 30.579,14.616Z" style="fill-opacity:0.02;fill-rule:nonzero;"/><path d="M1387.88,109.127l0,-0.001c-9.831,0 -19.76,3.026 -27.145,8.999c-7.18,5.807 -11.977,14.386 -11.977,25.7c0,4.311 1.108,9.153 3.251,13.649c2.013,4.221 4.937,8.133 8.695,11.025l1.197,0.954c0.149,0.134 0.272,0.252 0.368,0.364l-1.828,0.988c-3.715,2.003 -6.48,4.471 -8.365,7.297c-2.109,3.161 -3.125,6.775 -3.125,10.726c-0,2.956 0.996,6.35 3.236,9.217c1.824,2.334 4.469,4.324 8.077,5.434l0.336,0.11c-4.618,1.971 -8.837,4.749 -11.938,8.342c-3.255,3.772 -5.289,8.436 -5.289,14.016c0,6.86 3.528,15.246 12.219,21.615c7.609,5.574 19.22,9.621 35.942,9.621c15.298,0 30.383,-3.77 40.305,-12.086c7.186,-6.024 11.703,-14.416 11.703,-25.497c-0,-7.898 -3.11,-15.379 -9.689,-21.01c-6.95,-5.948 -17.824,-9.842 -33.087,-9.842c-14.375,0 -22.163,-0.183 -26.359,-0.798c-3.316,-0.486 -3.948,-1.037 -3.948,-2.391c-0,-3.025 2.416,-4.867 5.6,-6.101c4.357,-1.689 10.191,-2.178 14.538,-2.282c0.006,0 0.012,0 0.018,-0c11.151,-0.453 19.915,-3.521 26.137,-8.515c7.367,-5.913 11.212,-14.53 11.212,-24.836c-0,-2.548 -0.076,-4.362 -0.27,-5.902c-0.259,-2.054 -0.725,-3.63 -1.515,-5.778l-0.13,-0.767c0.065,-0.028 0.134,-0.059 0.185,-0.084c0.607,-0.304 1.094,-0.615 1.769,-0.819c0.468,-0.141 1.031,-0.225 1.804,-0.225c0.303,-0 0.719,-0.001 1.185,0.031l2.045,0.304c0.447,0.047 0.878,0.049 1.385,0.049c2.969,0 5.21,-1.198 6.736,-2.991c1.579,-1.856 2.384,-4.374 2.384,-6.897c-0,-3.741 -1.191,-6.209 -2.948,-7.857c-3.032,-2.844 -7.929,-3.186 -11.749,-3.186c-1.959,0 -3.747,0.257 -5.679,0.831c-2.202,0.655 -4.6,1.729 -7.685,3.325c-0.02,0.01 -0.039,0.02 -0.058,0.032c-0.415,0.249 -0.828,0.459 -1.264,0.603c-0.4,0.133 -0.82,0.21 -1.277,0.21c-0.367,-0 -0.84,-0.056 -1.389,-0.225c-0.417,-0.128 -0.876,-0.321 -1.363,-0.6c-0.024,-0.013 -0.049,-0.026 -0.074,-0.038c-3.351,-1.577 -6.95,-2.759 -10.647,-3.545c-3.667,-0.78 -7.43,-1.17 -11.144,-1.17l-0.385,0.001Zm2.658,65.967c-4.558,0.109 -10.666,0.651 -15.232,2.421c-4.082,1.583 -6.931,4.165 -6.931,8.044c0,1.014 0.194,1.845 0.807,2.549c0.7,0.803 2.087,1.488 4.923,1.904c4.244,0.622 12.121,0.82 26.661,0.82c11.645,-0 20.644,2.31 27.196,6.134c9.189,5.362 13.496,13.706 13.496,22.634c0,10.385 -4.222,18.255 -10.958,23.9c-9.586,8.035 -24.185,11.6 -38.966,11.6c-16.141,0 -27.366,-3.838 -34.71,-9.219c-8.033,-5.885 -11.367,-13.594 -11.367,-19.934c-0,-5.039 1.842,-9.249 4.783,-12.655c2.964,-3.435 7.034,-6.058 11.466,-7.91c0.488,-0.169 0.878,-0.434 1.128,-0.679c0.393,-0.384 0.509,-0.808 0.509,-1.066c-0,-0.445 -0.151,-0.925 -0.726,-1.371c-0.327,-0.253 -0.871,-0.529 -1.755,-0.783c-3.134,-0.966 -5.445,-2.688 -7.033,-4.721c-1.93,-2.469 -2.795,-5.389 -2.795,-7.934c0,-3.524 0.894,-6.75 2.775,-9.569c1.716,-2.574 4.248,-4.804 7.64,-6.63c0.007,-0.004 0.015,-0.009 0.023,-0.013c0.977,-0.558 1.852,-0.939 2.315,-1.312c0.506,-0.406 0.71,-0.866 0.71,-1.323c-0,-0.472 -0.162,-0.968 -0.662,-1.539c-0.362,-0.413 -0.957,-0.917 -1.864,-1.598c-3.497,-2.691 -6.208,-6.339 -8.081,-10.267c-2.003,-4.201 -3.048,-8.724 -3.048,-12.752c-0,-10.597 4.478,-18.641 11.203,-24.08c7.026,-5.683 16.481,-8.535 25.835,-8.535l0.385,-0c3.57,-0 7.187,0.374 10.71,1.123c3.525,0.75 6.957,1.874 10.155,3.375c0.628,0.355 1.216,0.598 1.751,0.762c0.791,0.243 1.473,0.317 2.001,0.317c0.692,0 1.327,-0.114 1.933,-0.315c0.571,-0.19 1.117,-0.458 1.66,-0.783c2.918,-1.507 5.192,-2.536 7.285,-3.158c1.73,-0.514 3.33,-0.744 5.085,-0.744c2.816,-0 6.313,0.116 8.953,1.619c2.16,1.23 3.66,3.448 3.66,7.34c0,2.026 -0.619,4.056 -1.887,5.547c-1.164,1.368 -2.884,2.258 -5.149,2.258c-0.359,0 -0.674,0.001 -0.989,-0.022l-2.029,-0.306c-0.63,-0.056 -1.2,-0.057 -1.597,-0.057c-1.031,0 -1.781,0.126 -2.406,0.315c-0.798,0.24 -1.381,0.591 -2.099,0.949c-0.349,0.175 -0.667,0.3 -0.901,0.561c-0.232,0.261 -0.444,0.639 -0.444,1.333c-0,0.156 0.001,0.411 0.062,0.763l0.195,0.751c0.733,1.991 1.173,3.445 1.413,5.346c0.185,1.472 0.253,3.206 0.253,5.641c0,9.625 -3.552,17.689 -10.432,23.211c-5.926,4.756 -14.29,7.625 -24.91,8.058Zm32.81,45.66c-0,-6.954 -3.355,-10.839 -8.448,-13.016c-6.098,-2.605 -14.848,-2.642 -23.173,-2.642c-10.469,-0 -17.183,2.608 -21.482,5.844c-6.663,5.015 -7.639,11.609 -7.639,13.084c-0,1.197 0.191,7.556 8.247,11.934c4.283,2.328 10.882,4.109 21.066,4.109c3.548,-0 15.402,-0.357 23.415,-5.36c4.631,-2.891 8.014,-7.289 8.014,-13.953Zm-2.084,0c0,5.827 -2.984,9.658 -7.033,12.186c-7.631,4.764 -18.933,5.043 -22.312,5.043c-9.698,0 -15.993,-1.639 -20.071,-3.855c-6.877,-3.738 -7.159,-9.082 -7.159,-10.104c0,-1.49 1.269,-8.815 9.762,-13.281c3.998,-2.103 9.561,-3.564 17.276,-3.564c8.028,0 16.474,-0.037 22.354,2.475c4.34,1.855 7.183,5.175 7.183,11.1Zm-11.187,-77.314c0,-5.26 -2.016,-10.311 -6.585,-13.689c-3.375,-2.495 -8.173,-4.085 -14.65,-4.085c-5.622,0 -10.653,1.683 -14.396,4.531c-4.237,3.223 -6.84,7.934 -6.84,13.435c0,3.342 0.987,9.414 6.206,13.485c3.052,2.38 7.572,4.097 14.26,4.097c5.703,-0 10.981,-1.374 14.921,-4.079c4.33,-2.972 7.084,-7.535 7.084,-13.695Zm-2.083,0c0,5.385 -2.395,9.379 -6.18,11.977c-3.626,2.49 -8.494,3.714 -13.742,3.714c-6.078,-0 -10.205,-1.493 -12.978,-3.657c-4.577,-3.57 -5.405,-8.912 -5.405,-11.842c0,-4.825 2.301,-8.949 6.019,-11.777c3.413,-2.597 8.008,-4.105 13.134,-4.105c5.922,-0 10.325,1.395 13.412,3.676c4.004,2.961 5.74,7.404 5.74,12.014Z" style="fill:#9c9c9c;"/><path d="M1523.08,197.291c-0,6.154 5,9.616 10.001,9.616c5,-0 9.808,-3.27 10,-10.193c0.193,-4.039 0.193,-9.424 0.193,-15.386c-0,-14.232 -0.385,-31.349 -0.577,-38.273c-0.77,-21.54 -16.348,-32.118 -32.503,-32.118c-10.001,0 -20.194,3.847 -27.31,11.54c-0.385,0.384 -0.769,0.769 -0.962,0.769c-0.192,0 -0.192,-0.192 -0.192,-0.385l0,-0.577c0,-0.577 0.192,-1.153 0.192,-1.923c0,-6.154 -5,-9.039 -9.808,-9.039c-4.808,0 -10.386,2.885 -10.386,8.655l0,0.384c0.385,12.886 0.577,22.887 0.577,34.426c0,11.347 -0.192,24.041 -0.769,42.311l0,0.385c0,6.154 5.001,9.424 10.193,9.424c7.693,-0 10.001,-5.77 9.809,-9.809c-0.385,-13.655 -0.577,-23.848 -0.577,-31.733c-0,-5.385 -0,-9.809 0.192,-13.27c0.577,-12.886 14.617,-23.272 26.349,-23.272c8.077,0 14.808,4.809 15.578,16.733c0.192,3.077 0.384,9.616 0.384,17.309c0,11.732 -0.192,26.348 -0.384,34.233l-0,0.193Z" style="fill-opacity:0.02;fill-rule:nonzero;"/><path d="M1482.91,120.948l0.059,-0.587c0,-3.308 -1.306,-5.765 -3.244,-7.434c-2.059,-1.774 -4.858,-2.647 -7.606,-2.647c-2.647,0 -5.506,0.813 -7.687,2.421c-2.21,1.629 -3.74,4.057 -3.74,7.276l0,0.415c0.187,6.243 0.328,11.808 0.424,17.199c0.102,5.727 0.153,11.257 0.153,17.196c-0,6.371 -0.061,13.167 -0.216,21.138c-0.122,6.215 -0.3,13.143 -0.553,21.141l-0.001,0.417c0,3.346 1.339,5.922 3.369,7.688c2.097,1.823 4.951,2.778 7.866,2.778c3.671,-0 6.22,-1.223 7.927,-2.934c2.252,-2.257 3.041,-5.41 2.923,-7.954c-0.205,-7.262 -0.355,-13.543 -0.45,-19.019c-0.084,-4.808 -0.126,-8.995 -0.126,-12.677c-0,-2.936 -0.001,-5.586 0.031,-7.95c0.026,-1.951 0.073,-3.705 0.159,-5.263c0,-0.003 0.001,-0.007 0.001,-0.011c0.273,-6.105 3.74,-11.608 8.503,-15.618c4.873,-4.103 11.117,-6.658 16.805,-6.658c4.169,0 7.963,1.353 10.626,4.476c2.176,2.551 3.588,6.254 3.912,11.281c0.096,1.529 0.191,3.918 0.263,6.88c0.072,2.974 0.12,6.524 0.12,10.363c-0,5.403 -0.041,11.419 -0.104,17.106c-0.073,6.652 -0.177,12.854 -0.281,17.102l1.042,1.067l-1.042,-1.022l1.042,1.214l-1.042,-1.041c0,3.292 1.299,5.887 3.255,7.697c2.086,1.929 4.935,2.961 7.788,2.961c2.972,-0 5.877,-1.061 7.965,-3.219c1.777,-1.836 2.977,-4.475 3.076,-7.976c0.087,-1.814 0.134,-3.897 0.161,-6.181c0.032,-2.818 0.032,-5.943 0.032,-9.245c0,-6.198 -0.072,-12.942 -0.171,-19.155c-0.127,-8.064 -0.297,-15.233 -0.406,-19.146c-0,-0.003 -0,-0.006 -0,-0.009c-0.371,-10.385 -4.102,-18.29 -9.651,-23.772c-6.32,-6.245 -15.02,-9.35 -23.893,-9.35c-5.181,-0 -10.412,1.006 -15.262,3.016c-4.437,1.839 -8.554,4.518 -12.027,8.036Zm41.133,76.426c0.052,-0.091 0.083,-0.178 0.083,-0.256c0,-0.002 0,-0.004 0,-0.005c0.104,-4.254 0.208,-10.462 0.281,-17.119c0.063,-5.695 0.104,-11.719 0.104,-17.129c0,-3.857 -0.048,-7.425 -0.121,-10.414c-0.072,-2.997 -0.169,-5.413 -0.266,-6.96c0,-0.001 0,-0.002 0,-0.002c-0.36,-5.58 -1.991,-9.669 -4.406,-12.5c-3.066,-3.596 -7.411,-5.207 -12.211,-5.207c-6.137,-0 -12.888,2.72 -18.147,7.147c-5.209,4.386 -8.941,10.436 -9.242,17.113c-0.088,1.582 -0.136,3.364 -0.162,5.345c-0.032,2.372 -0.032,5.031 -0.032,7.978c0,3.693 0.042,7.891 0.127,12.713c0.095,5.485 0.246,11.776 0.451,19.05c-0,0.006 -0,0.013 0,0.02c0.098,2.041 -0.508,4.584 -2.316,6.396c-1.385,1.388 -3.473,2.321 -6.452,2.321c-2.405,0 -4.769,-0.761 -6.498,-2.266c-1.613,-1.403 -2.653,-3.458 -2.653,-6.116l-0,-0.368c0.252,-8 0.431,-14.932 0.553,-21.149c0.155,-7.986 0.216,-14.795 0.216,-21.179c0,-5.951 -0.051,-11.494 -0.153,-17.234c-0.096,-5.394 -0.237,-10.962 -0.424,-17.207c0,-0 0,-0.369 0,-0.369c0,-2.48 1.191,-4.344 2.893,-5.599c1.829,-1.349 4.231,-2.014 6.451,-2.014c2.253,-0 4.558,0.687 6.247,2.142c1.522,1.311 2.52,3.255 2.52,5.855l-0.193,1.923l0,0.577c0,0.41 0.122,0.789 0.311,1.009c0.203,0.237 0.484,0.418 0.923,0.418c0.207,-0 0.501,-0.065 0.814,-0.28c0.242,-0.165 0.566,-0.476 0.885,-0.795c0.009,-0.009 0.019,-0.019 0.028,-0.029c3.422,-3.699 7.578,-6.481 12.08,-8.347c4.597,-1.906 9.555,-2.858 14.465,-2.858c8.326,0 16.498,2.889 22.429,8.749c5.216,5.153 8.683,12.599 9.033,22.361c0.108,3.91 0.278,11.067 0.405,19.117c0.098,6.202 0.171,12.935 0.171,19.122c0,3.293 0,6.41 -0.032,9.221c-0.027,2.26 -0.074,4.321 -0.159,6.115c-0,0.007 -0.001,0.014 -0.001,0.021c-0.08,2.888 -1.026,5.082 -2.491,6.597c-1.693,1.749 -4.059,2.583 -6.468,2.583c-2.333,0 -4.668,-0.829 -6.373,-2.407c-1.566,-1.448 -2.587,-3.532 -2.587,-6.167l-0.083,0.083Z" style="fill:#9c9c9c;"/></g><g><path d="M105.976,166.842c0,-18.492 -11.532,-35.591 -33.006,-37.182c-2.187,-0.198 -2.982,-0.596 -2.982,-0.795c0,-0.398 1.193,-0.795 3.181,-1.193c13.918,-1.988 23.86,-16.702 23.86,-31.813c-0,-16.701 -12.328,-34.198 -45.333,-36.385c-2.983,-0.199 -7.158,-0.398 -11.532,-0.398c-16.901,-0 -38.971,0.398 -39.568,25.251c-0.397,12.725 -0.596,39.766 -0.596,64.023c-0,16.106 -0,31.018 0.398,39.369c0.795,24.853 23.66,25.649 42.947,25.649c4.971,-0 10.14,-0.199 12.725,-0.398c34.398,-1.988 49.906,-24.854 49.906,-46.128Zm-56.269,-87.088c17.497,0 24.854,8.749 24.854,18.094c0,10.538 -9.146,21.672 -23.462,22.467c-3.579,0.199 -8.748,0.199 -13.52,0.199c-13.123,0 -15.907,0 -15.907,-4.175c0.199,-11.532 0,-22.866 0.398,-27.638c0.597,-7.555 4.573,-9.146 17.298,-9.146c5.17,0 10.339,0.199 10.339,0.199Zm7.158,112.935c-3.777,0.199 -8.748,0.398 -13.321,0.398c-18.491,0 -20.48,-2.386 -21.474,-9.743c-0.596,-5.368 -0.596,-14.514 -0.596,-39.368c-0,-3.976 1.789,-4.573 20.28,-4.573c4.971,0 10.141,0.199 15.111,0.597c18.293,1.391 26.246,12.923 26.246,24.654c-0,13.322 -9.743,27.041 -26.246,28.035Z" style="fill:#4f4f4f;fill-rule:nonzero;"/><path d="M142.76,87.31c8.549,-0 13.918,-6.959 13.918,-14.117c-0,-7.556 -6.76,-13.521 -13.918,-13.521c-5.568,0 -13.918,3.778 -13.918,13.521c-0,9.146 6.163,14.117 13.918,14.117Zm10.737,114.923l-0,-0.397c-0.199,-10.936 -0.398,-25.053 -0.398,-38.772c-0,-16.702 0.199,-32.409 0.398,-40.561l-0,-0.398c-0,-6.363 -5.369,-9.544 -10.538,-9.544c-5.965,0 -10.936,3.579 -10.737,10.14c0.199,5.369 0.199,13.322 0.199,22.269c-0,18.094 -0.199,40.76 -0.199,57.263c-0,6.76 5.169,10.141 10.538,10.141c5.368,-0 10.737,-3.381 10.737,-10.141Z" style="fill:#4f4f4f;fill-rule:nonzero;"/><path d="M197.637,211.777c7.953,0 10.339,-5.965 10.14,-10.14c-0.398,-14.117 -0.596,-24.059 -0.596,-31.813c-0,-5.368 -0,-9.544 0.198,-13.123c0.597,-12.526 13.72,-22.269 25.451,-23.462c7.754,-0.795 11.333,-5.965 11.333,-10.935c-0,-4.971 -3.579,-9.544 -9.743,-9.544c-6.76,-0 -17.497,3.38 -25.45,12.128c-0.398,0.597 -0.795,0.796 -0.795,0.796c-0.199,-0 -0.199,-0.199 -0.199,-0.597l-0,-0.795c-0,-0.596 0.199,-1.193 0.199,-1.988c-0,-6.363 -5.17,-9.345 -10.141,-9.345c-4.97,-0 -10.736,2.982 -10.736,8.947l-0,0.398c0.397,13.321 0.596,23.66 0.596,35.59c0,11.731 -0.199,24.854 -0.795,43.743l-0,0.397c-0,6.363 5.169,9.743 10.538,9.743Z" style="fill:#4f4f4f;fill-rule:nonzero;"/><path d="M360.478,200.245c0,-1.79 -0.397,-3.579 -1.392,-5.368c-5.766,-11.135 -5.965,-11.731 -5.965,-85.497c0,-16.702 0.199,-30.819 0.597,-37.579l-0,-0.994c-0,-6.959 -5.17,-10.339 -10.339,-10.339c-5.766,-0 -10.339,4.175 -10.14,10.339c0.198,8.351 0.596,28.631 0.596,51.696c0,0.596 -0.199,0.795 -0.596,0.795c-0.199,-0 -0.597,-0 -0.796,-0.199c-7.356,-6.561 -16.701,-10.737 -27.836,-10.737c-27.438,0 -48.316,20.877 -48.316,49.906c0,30.024 20.878,49.907 48.316,49.907c12.924,-0 23.661,-5.568 31.415,-13.918c0.398,-0.398 0.795,-0.796 0.994,-0.796c0.398,0 0.597,0.398 0.796,1.193c2.783,10.936 6.561,12.527 11.134,12.527c5.766,-0 11.532,-4.574 11.532,-10.936Zm-55.473,-6.561c-15.907,-0 -28.632,-11.93 -28.632,-31.416c0,-19.684 12.725,-31.812 28.632,-31.812c15.906,-0 28.631,12.128 28.631,31.812c0,19.486 -12.725,31.416 -28.631,31.416Z" style="fill:#4f4f4f;fill-rule:nonzero;"/><path d="M407.203,122.304c-0.795,-5.965 -5.368,-9.146 -9.941,-9.146c-5.17,-0 -10.339,3.777 -10.339,11.134c-0,18.889 0.397,56.269 0.397,86.292c0,17.497 0,32.409 -0.596,39.567l-0,0.994c-0,6.761 5.169,10.339 10.538,10.339c6.163,0 10.339,-4.175 10.14,-10.339c-0.199,-8.152 -0.596,-27.04 -0.596,-48.912c-0,-0.795 0.198,-1.193 0.596,-1.193c0.199,0 0.596,0.398 0.994,0.597c7.357,6.362 16.702,10.538 27.637,10.538c27.439,-0 48.117,-20.877 48.117,-49.907c0,-30.023 -20.678,-49.906 -48.117,-49.906c-10.935,0 -20.28,3.977 -27.637,10.339c-0.199,0.199 -0.398,0.199 -0.596,0.199c-0.199,0 -0.398,-0.199 -0.597,-0.596Zm28.433,71.777c-15.907,0 -28.632,-12.128 -28.632,-31.813c0,-19.485 12.725,-31.415 28.632,-31.415c15.906,0 28.631,11.93 28.631,31.415c0,19.685 -12.725,31.813 -28.631,31.813Z" style="fill:#4f4f4f;fill-rule:nonzero;"/><path d="M583.167,210.584c5.766,0 10.141,-6.362 10.141,-11.93c-0,-2.783 -0.994,-5.368 -3.182,-6.959c-1.59,-1.193 -8.947,-1.789 -10.736,-17.696c-0.199,-1.193 -0.199,-2.783 -0.199,-4.573c-0,-5.965 0.596,-13.52 0.994,-16.503c0.199,-2.783 0.398,-5.169 0.398,-7.754c-0,-22.865 -11.93,-33.602 -33.801,-33.602c-20.082,-0 -37.579,10.538 -37.579,20.082c-0,5.169 4.374,9.146 9.544,9.146c2.386,-0 5.169,-0.994 7.356,-3.579c3.778,-4.175 10.538,-8.351 19.486,-8.351c13.52,0 14.117,10.14 14.117,12.526c-0,4.176 -1.591,6.562 -3.579,6.761c-3.182,0.198 -20.281,3.976 -34,8.748c-13.322,4.573 -19.287,14.713 -19.287,24.854c0,15.31 12.924,31.216 34.795,31.216c11.731,0 24.258,-4.175 31.018,-11.93c0.398,-0.397 0.795,-0.596 1.193,-0.596c0.199,-0 0.596,0.199 0.795,0.596c1.79,2.983 3.579,5.17 5.369,6.562c2.386,1.988 4.97,2.982 7.157,2.982Zm-25.251,-45.731c2.386,0 2.784,4.375 2.784,7.357c-0,14.117 -6.959,22.269 -23.065,22.269c-10.14,-0 -15.508,-6.164 -15.508,-12.328c-0,-4.771 1.988,-13.122 35.59,-17.298l0.199,0Z" style="fill:#4f4f4f;fill-rule:nonzero;"/><path d="M633.273,122.304c-0.796,-5.965 -5.369,-9.146 -9.942,-9.146c-5.17,-0 -10.339,3.777 -10.339,11.134c-0,18.889 0.398,56.269 0.398,86.292c-0,17.497 -0,32.409 -0.597,39.567l0,0.994c0,6.761 5.17,10.339 10.538,10.339c6.164,0 10.339,-4.175 10.14,-10.339c-0.198,-8.152 -0.596,-27.04 -0.596,-48.912c-0,-0.795 0.199,-1.193 0.596,-1.193c0.199,0 0.597,0.398 0.994,0.597c7.357,6.362 16.702,10.538 27.638,10.538c27.438,-0 48.117,-20.877 48.117,-49.907c-0,-30.023 -20.679,-49.906 -48.117,-49.906c-10.936,0 -20.281,3.977 -27.638,10.339c-0.198,0.199 -0.397,0.199 -0.596,0.199c-0.199,0 -0.398,-0.199 -0.596,-0.596Zm28.432,71.777c-15.906,0 -28.631,-12.128 -28.631,-31.813c-0,-19.485 12.725,-31.415 28.631,-31.415c15.907,0 28.632,11.93 28.632,31.415c-0,19.685 -12.725,31.813 -28.632,31.813Z" style="fill:#4f4f4f;fill-rule:nonzero;"/><path d="M815.997,196.467c2.187,-2.187 2.982,-4.573 2.982,-6.959c0,-5.567 -5.169,-10.339 -10.538,-10.339c-2.386,-0 -4.771,0.994 -6.76,3.181c-5.766,6.164 -13.321,12.129 -25.848,12.129c-14.117,-0 -26.842,-9.942 -27.04,-26.444c-0,-2.188 0.397,-3.778 1.59,-3.778c38.573,-0 42.749,-0 48.912,-0.199c12.725,-0.398 18.889,-7.953 18.889,-17.298c0,-15.111 -15.509,-35.193 -42.947,-35.193c-25.649,-0 -47.123,20.877 -47.123,51.298c0,29.626 20.281,50.105 47.521,50.105c20.081,0 30.818,-6.561 40.362,-16.503Zm-22.468,-48.713c-5.368,0.199 -14.316,0.199 -22.468,0.199c-18.491,-0 -20.479,-0 -20.479,-1.79c0,-3.38 8.749,-17.298 24.854,-17.298c17.894,0 22.07,11.731 22.07,14.515c-0,2.386 -1.591,4.175 -3.977,4.374Z" style="fill:#4f4f4f;fill-rule:nonzero;"/><path d="M853.775,211.777c7.953,0 10.339,-5.965 10.14,-10.14c-0.398,-14.117 -0.597,-24.059 -0.597,-31.813c0,-5.368 0,-9.544 0.199,-13.123c0.597,-12.526 13.72,-22.269 25.45,-23.462c7.755,-0.795 11.334,-5.965 11.334,-10.935c-0,-4.971 -3.579,-9.544 -9.743,-9.544c-6.76,-0 -17.497,3.38 -25.45,12.128c-0.398,0.597 -0.795,0.796 -0.795,0.796c-0.199,-0 -0.199,-0.199 -0.199,-0.597l-0,-0.795c-0,-0.596 0.199,-1.193 0.199,-1.988c-0,-6.363 -5.17,-9.345 -10.141,-9.345c-4.97,-0 -10.737,2.982 -10.737,8.947l0,0.398c0.398,13.321 0.597,23.66 0.597,35.59c-0,11.731 -0.199,24.854 -0.795,43.743l-0,0.397c-0,6.363 5.169,9.743 10.538,9.743Z" style="fill:#4f4f4f;fill-rule:nonzero;"/></g><g id="图层1"><rect x="912.876" y="56.25" width="693" height="1.212" style="fill:#d5d5d5;"/><path d="M1545.13,303l0.008,-303l1.059,0l-0.008,303l-1.059,0Z" style="fill:#d5d5d5;"/><rect x="912.876" y="257.25" width="693" height="0.891" style="fill:#d5d5d5;"/><path d="M957.884,0l-0.008,303l1.051,0l0.008,-303l-1.051,0Z" style="fill:#d5d5d5;"/></g></g></svg>