<?xml version="1.0" encoding="UTF-8" standalone="no"?><!DOCTYPE svg PUBLIC "-//W3C//DTD SVG 1.1//EN" "http://www.w3.org/Graphics/SVG/1.1/DTD/svg11.dtd"><svg width="100%" height="100%" viewBox="0 0 1544 203" version="1.1" xmlns="http://www.w3.org/2000/svg" xmlns:xlink="http://www.w3.org/1999/xlink" xml:space="preserve" xmlns:serif="http://www.serif.com/" style="fill-rule:evenodd;clip-rule:evenodd;stroke-linejoin:round;stroke-miterlimit:2;"><g id="原始字体-曲线"><g><path d="M1089.59,74.363c-0,-40.003 -24.425,-70.967 -68.852,-73.852c-2.885,-0.192 -8.655,-0.385 -14.617,-0.385c-23.848,0 -42.888,0.77 -44.426,27.118c-0.577,10.386 -1.154,32.695 -1.154,53.851c-0,16.155 0.384,31.733 0.961,41.157c1.924,26.925 29.234,27.118 44.619,27.118c20.002,-0 83.469,-0.193 83.469,-75.007Zm-70.775,-53.273c29.425,-0 48.081,22.309 48.081,53.273c-0,54.428 -40.581,54.428 -60.775,54.428c-15.962,-0 -21.924,-1.539 -22.886,-10.385c-0.769,-7.309 -1.154,-21.541 -1.154,-36.734c-0,-20.771 0.577,-42.889 1.154,-50.966c0.577,-9.616 10.962,-9.809 20.194,-9.809c7.116,0 15.386,0.193 15.386,0.193Z" style="fill:#554f4f;fill-rule:nonzero;"/><path d="M1193.63,133.022c2.116,-2.115 2.885,-4.423 2.885,-6.731c-0,-5.385 -5,-10.001 -10.193,-10.001c-2.308,-0 -4.616,0.962 -6.539,3.077c-5.578,5.962 -12.886,11.732 -25.002,11.732c-13.655,-0 -25.964,-9.616 -26.156,-25.579c-0,-2.116 0.384,-3.654 1.538,-3.654c37.311,-0 41.35,-0 47.312,-0.193c12.309,-0.384 18.271,-7.693 18.271,-16.732c-0,-14.616 -15.002,-34.041 -41.542,-34.041c-24.81,-0 -45.581,20.194 -45.581,49.619c0,28.657 19.617,48.466 45.965,48.466c19.425,-0 29.811,-6.347 39.042,-15.963Zm-21.732,-47.119c-5.193,0.192 -13.848,0.192 -21.733,0.192c-17.886,0 -19.809,0 -19.809,-1.731c-0,-3.269 8.462,-16.732 24.04,-16.732c17.309,0 21.348,11.347 21.348,14.04c0,2.308 -1.539,4.038 -3.846,4.231Z" style="fill:#554f4f;fill-rule:nonzero;"/><path d="M1276.72,120.521c-0,-9.424 -5.577,-19.232 -18.848,-26.348c-5.769,-3.077 -14.424,-6.924 -19.424,-9.424c-4.424,-2.116 -6.347,-5.578 -6.347,-8.462c-0,-4.232 3.654,-7.886 10.193,-7.886c6.731,0 10.193,2.693 12.116,4.616c2.501,2.693 5.385,3.847 7.886,3.847c5.192,-0 9.616,-4.424 9.616,-9.617c-0,-7.5 -11.924,-16.155 -29.618,-16.155c-18.463,0 -29.233,12.694 -29.233,25.772c-0,9.423 5.385,18.847 17.309,24.04c22.502,10.193 26.733,13.847 26.733,20.002c-0,4.423 -4.039,9.808 -14.232,9.808c-7.885,0 -12.886,-3.269 -15.578,-6.731c-2.116,-2.885 -5.001,-4.039 -7.693,-4.039c-5.001,0 -9.809,4.039 -9.809,9.232c0,6.346 9.809,19.617 33.272,19.617c19.233,-0 33.657,-13.271 33.657,-28.272Z" style="fill:#554f4f;fill-rule:nonzero;"/><path d="M1310.76,27.436c8.27,0 13.463,-6.731 13.463,-13.655c-0,-7.308 -6.539,-13.078 -13.463,-13.078c-5.385,0 -13.462,3.655 -13.462,13.078c-0,8.847 5.962,13.655 13.462,13.655Zm10.386,111.164l-0,-0.385c-0.193,-10.578 -0.385,-24.233 -0.385,-37.503c0,-16.155 0.192,-31.349 0.385,-39.234l-0,-0.385c-0,-6.154 -5.193,-9.232 -10.193,-9.232c-5.77,0 -10.578,3.462 -10.386,9.809c0.192,5.193 0.192,12.886 0.192,21.54c0,17.502 -0.192,39.427 -0.192,55.39c0,6.539 5.001,9.808 10.193,9.808c5.193,0 10.386,-3.269 10.386,-9.808Z" style="fill:#554f4f;fill-rule:nonzero;"/><path d="M1390.57,117.059c23.655,-0.961 36.349,-13.847 36.349,-32.31c-0,-5.77 -0.385,-7.693 -1.731,-11.347c-0.192,-0.577 -0.192,-0.962 -0.192,-1.154c-0,-0.769 0.384,-0.769 0.769,-0.962c1.154,-0.577 1.923,-1.154 4.039,-1.154c0.577,0 1.538,0 2.5,0.193c0.769,0.192 1.346,0.192 2.115,0.192c5.386,-0 8.078,-4.424 8.078,-8.847c0,-9.424 -8.078,-10.001 -13.655,-10.001c-4.039,0 -7.308,1.154 -12.886,4.039c-0.961,0.577 -1.923,0.962 -3.077,0.962c-0.769,-0 -1.923,-0.193 -3.269,-0.962c-6.539,-3.077 -14.04,-4.616 -21.348,-4.616l-0.385,0c-18.848,0 -38.08,11.347 -38.08,33.657c0,8.077 4.039,18.078 11.539,23.848c1.539,1.154 2.116,1.731 2.116,2.308c0,0.577 -1.154,0.962 -2.5,1.731c-7.501,4.039 -10.963,10.001 -10.963,17.117c0,5 3.078,11.347 10.578,13.655c1.346,0.384 1.731,0.769 1.731,1.154c0,0.192 -0.385,0.577 -0.962,0.769c-9.231,3.846 -16.924,10.962 -16.924,21.54c-0,12.501 12.309,30.195 47.119,30.195c25.772,-0 50.966,-10.77 50.966,-36.542c0,-15.77 -12.886,-29.81 -41.734,-29.81c-29.041,0 -31.349,-0.769 -31.349,-4.231c0,-7.693 13.078,-9.231 21.156,-9.424Zm18.463,-32.695c-0,11.155 -9.616,16.732 -20.964,16.732c-17.116,0 -19.424,-11.539 -19.424,-16.539c-0,-9.809 8.847,-16.925 20.194,-16.925c14.424,0 20.194,8.078 20.194,16.732Zm13.27,77.314c0,17.502 -25.002,18.271 -30.387,18.271c-27.695,0 -28.272,-13.27 -28.272,-15.001c0,-2.308 2.693,-17.886 28.08,-17.886c14.616,-0 30.579,-0 30.579,14.616Z" style="fill:#554f4f;fill-rule:nonzero;"/><path d="M1523.08,138.215c-0,6.154 5,9.616 10.001,9.616c5,0 9.808,-3.269 10,-10.193c0.193,-4.039 0.193,-9.424 0.193,-15.386c-0,-14.232 -0.385,-31.349 -0.577,-38.272c-0.77,-21.541 -16.348,-32.119 -32.503,-32.119c-10.001,0 -20.194,3.847 -27.31,11.54c-0.385,0.385 -0.769,0.769 -0.962,0.769c-0.192,0 -0.192,-0.192 -0.192,-0.384l0,-0.577c0,-0.577 0.192,-1.154 0.192,-1.924c0,-6.154 -5,-9.039 -9.808,-9.039c-4.808,0 -10.386,2.885 -10.386,8.655l0,0.384c0.385,12.886 0.577,22.887 0.577,34.426c0,11.347 -0.192,24.041 -0.769,42.312l0,0.384c0,6.155 5.001,9.424 10.193,9.424c7.693,0 10.001,-5.77 9.809,-9.808c-0.385,-13.655 -0.577,-23.849 -0.577,-31.734c-0,-5.385 -0,-9.808 0.192,-13.27c0.577,-12.886 14.617,-23.271 26.349,-23.271c8.077,-0 14.808,4.808 15.578,16.732c0.192,3.077 0.384,9.616 0.384,17.309c0,11.732 -0.192,26.348 -0.384,34.234l-0,0.192Z" style="fill:#554f4f;fill-rule:nonzero;"/></g><g><path d="M105.976,107.766c0,-18.491 -11.532,-35.591 -33.006,-37.181c-2.187,-0.199 -2.982,-0.597 -2.982,-0.796c0,-0.397 1.193,-0.795 3.181,-1.193c13.918,-1.988 23.86,-16.701 23.86,-31.813c-0,-16.701 -12.328,-34.198 -45.333,-36.385c-2.983,-0.199 -7.158,-0.398 -11.532,-0.398c-16.901,-0 -38.971,0.398 -39.568,25.251c-0.397,12.725 -0.596,39.766 -0.596,64.024c-0,16.105 -0,31.017 0.398,39.368c0.795,24.854 23.66,25.649 42.947,25.649c4.971,-0 10.14,-0.199 12.725,-0.398c34.398,-1.988 49.906,-24.854 49.906,-46.128Zm-56.269,-87.088c17.497,0 24.854,8.749 24.854,18.094c0,10.538 -9.146,21.672 -23.462,22.468c-3.579,0.198 -8.748,0.198 -13.52,0.198c-13.123,0 -15.907,0 -15.907,-4.175c0.199,-11.532 0,-22.865 0.398,-27.637c0.597,-7.556 4.573,-9.147 17.298,-9.147c5.17,0 10.339,0.199 10.339,0.199Zm7.158,112.936c-3.777,0.198 -8.748,0.397 -13.321,0.397c-18.491,0 -20.48,-2.386 -21.474,-9.742c-0.596,-5.369 -0.596,-14.515 -0.596,-39.369c-0,-3.976 1.789,-4.573 20.28,-4.573c4.971,0 10.141,0.199 15.111,0.597c18.293,1.391 26.246,12.924 26.246,24.655c-0,13.321 -9.743,27.04 -26.246,28.035Z" style="fill:#4f4f4f;fill-rule:nonzero;"/><path d="M142.76,28.234c8.549,-0 13.918,-6.959 13.918,-14.117c-0,-7.556 -6.76,-13.521 -13.918,-13.521c-5.568,0 -13.918,3.778 -13.918,13.521c-0,9.146 6.163,14.117 13.918,14.117Zm10.737,114.923l-0,-0.397c-0.199,-10.936 -0.398,-25.053 -0.398,-38.772c-0,-16.702 0.199,-32.409 0.398,-40.561l-0,-0.398c-0,-6.363 -5.369,-9.544 -10.538,-9.544c-5.965,0 -10.936,3.579 -10.737,10.14c0.199,5.369 0.199,13.322 0.199,22.269c-0,18.094 -0.199,40.761 -0.199,57.263c-0,6.761 5.169,10.141 10.538,10.141c5.368,-0 10.737,-3.38 10.737,-10.141Z" style="fill:#4f4f4f;fill-rule:nonzero;"/><path d="M197.637,152.701c7.953,0 10.339,-5.965 10.14,-10.14c-0.398,-14.117 -0.596,-24.059 -0.596,-31.813c-0,-5.368 -0,-9.544 0.198,-13.123c0.597,-12.526 13.72,-22.269 25.451,-23.462c7.754,-0.795 11.333,-5.964 11.333,-10.935c-0,-4.971 -3.579,-9.544 -9.743,-9.544c-6.76,0 -17.497,3.38 -25.45,12.129c-0.398,0.596 -0.795,0.795 -0.795,0.795c-0.199,-0 -0.199,-0.199 -0.199,-0.597l-0,-0.795c-0,-0.596 0.199,-1.193 0.199,-1.988c-0,-6.363 -5.17,-9.345 -10.141,-9.345c-4.97,-0 -10.736,2.982 -10.736,8.947l-0,0.398c0.397,13.321 0.596,23.661 0.596,35.59c0,11.731 -0.199,24.854 -0.795,43.743l-0,0.398c-0,6.362 5.169,9.742 10.538,9.742Z" style="fill:#4f4f4f;fill-rule:nonzero;"/><path d="M360.478,141.169c0,-1.789 -0.397,-3.579 -1.392,-5.368c-5.766,-11.135 -5.965,-11.731 -5.965,-85.497c0,-16.702 0.199,-30.819 0.597,-37.579l-0,-0.994c-0,-6.959 -5.17,-10.339 -10.339,-10.339c-5.766,-0 -10.339,4.175 -10.14,10.339c0.198,8.351 0.596,28.631 0.596,51.696c0,0.596 -0.199,0.795 -0.596,0.795c-0.199,-0 -0.597,-0 -0.796,-0.199c-7.356,-6.561 -16.701,-10.737 -27.836,-10.737c-27.438,0 -48.316,20.877 -48.316,49.907c0,30.023 20.878,49.906 48.316,49.906c12.924,-0 23.661,-5.567 31.415,-13.918c0.398,-0.398 0.795,-0.796 0.994,-0.796c0.398,0 0.597,0.398 0.796,1.193c2.783,10.936 6.561,12.527 11.134,12.527c5.766,-0 11.532,-4.573 11.532,-10.936Zm-55.473,-6.561c-15.907,-0 -28.632,-11.93 -28.632,-31.415c0,-19.685 12.725,-31.813 28.632,-31.813c15.906,-0 28.631,12.128 28.631,31.813c0,19.485 -12.725,31.415 -28.631,31.415Z" style="fill:#4f4f4f;fill-rule:nonzero;"/><path d="M407.203,63.228c-0.795,-5.965 -5.368,-9.146 -9.941,-9.146c-5.17,-0 -10.339,3.777 -10.339,11.134c-0,18.889 0.397,56.269 0.397,86.292c0,17.497 0,32.409 -0.596,39.567l-0,0.994c-0,6.761 5.169,10.34 10.538,10.34c6.163,-0 10.339,-4.176 10.14,-10.34c-0.199,-8.152 -0.596,-27.04 -0.596,-48.912c-0,-0.795 0.198,-1.193 0.596,-1.193c0.199,0 0.596,0.398 0.994,0.597c7.357,6.362 16.702,10.538 27.637,10.538c27.439,-0 48.117,-20.877 48.117,-49.906c0,-30.024 -20.678,-49.907 -48.117,-49.907c-10.935,0 -20.28,3.977 -27.637,10.339c-0.199,0.199 -0.398,0.199 -0.596,0.199c-0.199,0 -0.398,-0.199 -0.597,-0.596Zm28.433,71.777c-15.907,0 -28.632,-12.128 -28.632,-31.812c0,-19.486 12.725,-31.415 28.632,-31.415c15.906,-0 28.631,11.929 28.631,31.415c0,19.684 -12.725,31.812 -28.631,31.812Z" style="fill:#4f4f4f;fill-rule:nonzero;"/><path d="M583.167,151.508c5.766,0 10.141,-6.362 10.141,-11.93c-0,-2.783 -0.994,-5.368 -3.182,-6.959c-1.59,-1.193 -8.947,-1.789 -10.736,-17.695c-0.199,-1.193 -0.199,-2.784 -0.199,-4.574c-0,-5.964 0.596,-13.52 0.994,-16.502c0.199,-2.784 0.398,-5.17 0.398,-7.755c-0,-22.865 -11.93,-33.602 -33.801,-33.602c-20.082,0 -37.579,10.538 -37.579,20.082c-0,5.169 4.374,9.146 9.544,9.146c2.386,-0 5.169,-0.994 7.356,-3.579c3.778,-4.175 10.538,-8.351 19.486,-8.351c13.52,0 14.117,10.141 14.117,12.526c-0,4.176 -1.591,6.562 -3.579,6.761c-3.182,0.199 -20.281,3.976 -34,8.748c-13.322,4.573 -19.287,14.714 -19.287,24.854c0,15.31 12.924,31.216 34.795,31.216c11.731,0 24.258,-4.175 31.018,-11.93c0.398,-0.397 0.795,-0.596 1.193,-0.596c0.199,-0 0.596,0.199 0.795,0.596c1.79,2.983 3.579,5.17 5.369,6.562c2.386,1.988 4.97,2.982 7.157,2.982Zm-25.251,-45.731c2.386,0 2.784,4.375 2.784,7.357c-0,14.117 -6.959,22.269 -23.065,22.269c-10.14,0 -15.508,-6.164 -15.508,-12.327c-0,-4.772 1.988,-13.123 35.59,-17.299l0.199,0Z" style="fill:#4f4f4f;fill-rule:nonzero;"/><path d="M633.273,63.228c-0.796,-5.965 -5.369,-9.146 -9.942,-9.146c-5.17,-0 -10.339,3.777 -10.339,11.134c-0,18.889 0.398,56.269 0.398,86.292c-0,17.497 -0,32.409 -0.597,39.567l0,0.994c0,6.761 5.17,10.34 10.538,10.34c6.164,-0 10.339,-4.176 10.14,-10.34c-0.198,-8.152 -0.596,-27.04 -0.596,-48.912c-0,-0.795 0.199,-1.193 0.596,-1.193c0.199,0 0.597,0.398 0.994,0.597c7.357,6.362 16.702,10.538 27.638,10.538c27.438,-0 48.117,-20.877 48.117,-49.906c-0,-30.024 -20.679,-49.907 -48.117,-49.907c-10.936,0 -20.281,3.977 -27.638,10.339c-0.198,0.199 -0.397,0.199 -0.596,0.199c-0.199,0 -0.398,-0.199 -0.596,-0.596Zm28.432,71.777c-15.906,0 -28.631,-12.128 -28.631,-31.812c-0,-19.486 12.725,-31.415 28.631,-31.415c15.907,-0 28.632,11.929 28.632,31.415c-0,19.684 -12.725,31.812 -28.632,31.812Z" style="fill:#4f4f4f;fill-rule:nonzero;"/><path d="M815.997,137.391c2.187,-2.187 2.982,-4.573 2.982,-6.959c0,-5.567 -5.169,-10.339 -10.538,-10.339c-2.386,0 -4.771,0.994 -6.76,3.181c-5.766,6.164 -13.321,12.129 -25.848,12.129c-14.117,0 -26.842,-9.941 -27.04,-26.444c-0,-2.187 0.397,-3.778 1.59,-3.778c38.573,-0 42.749,-0 48.912,-0.199c12.725,-0.398 18.889,-7.953 18.889,-17.298c0,-15.111 -15.509,-35.193 -42.947,-35.193c-25.649,0 -47.123,20.877 -47.123,51.298c0,29.626 20.281,50.105 47.521,50.105c20.081,0 30.818,-6.561 40.362,-16.503Zm-22.468,-48.713c-5.368,0.199 -14.316,0.199 -22.468,0.199c-18.491,-0 -20.479,-0 -20.479,-1.79c0,-3.38 8.749,-17.298 24.854,-17.298c17.894,0 22.07,11.731 22.07,14.515c-0,2.386 -1.591,4.175 -3.977,4.374Z" style="fill:#4f4f4f;fill-rule:nonzero;"/><path d="M853.775,152.701c7.953,0 10.339,-5.965 10.14,-10.14c-0.398,-14.117 -0.597,-24.059 -0.597,-31.813c0,-5.368 0,-9.544 0.199,-13.123c0.597,-12.526 13.72,-22.269 25.45,-23.462c7.755,-0.795 11.334,-5.964 11.334,-10.935c-0,-4.971 -3.579,-9.544 -9.743,-9.544c-6.76,0 -17.497,3.38 -25.45,12.129c-0.398,0.596 -0.795,0.795 -0.795,0.795c-0.199,-0 -0.199,-0.199 -0.199,-0.597l-0,-0.795c-0,-0.596 0.199,-1.193 0.199,-1.988c-0,-6.363 -5.17,-9.345 -10.141,-9.345c-4.97,-0 -10.737,2.982 -10.737,8.947l0,0.398c0.398,13.321 0.597,23.661 0.597,35.59c-0,11.731 -0.199,24.854 -0.795,43.743l-0,0.398c-0,6.362 5.169,9.742 10.538,9.742Z" style="fill:#4f4f4f;fill-rule:nonzero;"/></g></g></svg>